<svg width="47" height="26" viewBox="0 0 47 26" fill="none" xmlns="http://www.w3.org/2000/svg">
<path fill-rule="evenodd" clip-rule="evenodd" d="M4.75 1H12.1495V1.36598L12.1483 1.36675L12.1495 1.36742L8.61607 7.36383H19V25H1V7.3639L4.75 1ZM11.067 1.73484H5.18301L1.75 7.5608V24.2652H18.25V8.09867H7.75L7.74996 7.36383L11.067 1.73484Z" fill="#131313" stroke="#131313"/>
<path fill-rule="evenodd" clip-rule="evenodd" d="M30.75 1H38.1495V1.36598L38.1483 1.36675L38.1495 1.36742L34.6161 7.36383H45V25H27V7.3639L30.75 1ZM37.067 1.73484H31.183L27.75 7.5608V24.2652H44.25V8.09867H33.75L33.75 7.36383L37.067 1.73484Z" fill="#131313" stroke="#131313"/>
</svg>
