<svg width="33" height="32" viewBox="0 0 33 32" fill="none" xmlns="http://www.w3.org/2000/svg">
<path fill-rule="evenodd" clip-rule="evenodd" d="M32.2773 16C32.2773 24.8366 25.1139 32 16.2773 32C7.44079 32 0.277344 24.8366 0.277344 16C0.277344 7.16344 7.44079 0 16.2773 0C25.1139 0 32.2773 7.16344 32.2773 16ZM17.9353 4.91113H21.4797H21.4814V8.73608C21.2784 8.73727 20.6748 8.73684 20.1221 8.73644C19.864 8.73626 19.617 8.73608 19.4271 8.73608C19.4244 8.73608 19.4204 8.736 19.4151 8.73589C19.2663 8.73283 18.0979 8.70881 18.0979 9.87195C18.1055 10.3641 18.0979 12.0587 18.0979 12.0587H21.4952L21.2199 15.8681H18.1774V27.0888H13.5677V15.9416H11.0591V12.0695H13.4924C13.4924 11.6797 13.4936 11.3047 13.4947 10.9377C13.497 10.2265 13.4992 9.54539 13.4924 8.84469C13.4924 5.79578 15.8319 4.91113 17.9353 4.91113Z" fill="#F2F2F3"/>
</svg>
