<svg width="39" height="32" viewBox="0 0 39 32" fill="none" xmlns="http://www.w3.org/2000/svg">
<path d="M7.59272 0V32H0.275391V0H7.59272ZM25.8542 0C25.8542 6.7104 23.3317 12.968 18.8189 17.7088L18.3759 18.1616L28.4835 32H19.4515L8.46755 16.96L11.3024 14.8288C15.8566 11.4048 18.5289 6.224 18.6914 0.5504L18.6994 0H25.8542ZM34.5356 24C35.5921 24 36.6054 24.4214 37.3525 25.1716C38.0996 25.9217 38.5193 26.9391 38.5193 28C38.5193 29.0609 38.0996 30.0783 37.3525 30.8284C36.6054 31.5786 35.5921 32 34.5356 32C33.479 32 32.4657 31.5786 31.7186 30.8284C30.9715 30.0783 30.5518 29.0609 30.5518 28C30.5518 26.9391 30.9715 25.9217 31.7186 25.1716C32.4657 24.4214 33.479 24 34.5356 24Z" fill="#F2F2F3"/>
</svg>
