<svg width="27" height="32" viewBox="0 0 27 32" fill="none" xmlns="http://www.w3.org/2000/svg">
<path d="M9.78703 17.2036H12.6463C18.8578 17.2036 22.3823 14.3182 23.5043 8.38578C23.5405 8.19022 23.5732 8.00178 23.6008 7.81333C23.6628 7.41156 23.6939 7.05067 23.7077 6.704C23.718 6.46578 23.7249 6.32533 23.7232 6.19378C23.7214 5.55844 23.5948 4.93008 23.3509 4.34667C23.1286 3.82044 22.7925 3.30311 22.2944 2.71467C20.8243 0.990222 18.2632 0 15.204 0H5.46107C5.12905 0.00041519 4.80805 0.12288 4.55567 0.345413C4.30329 0.567947 4.13606 0.875979 4.08401 1.21422L2.32605 12.896L0.13894 27.4471C0.120283 27.5703 0.127706 27.6962 0.160699 27.8162C0.193693 27.9362 0.251475 28.0474 0.330076 28.1422C0.408677 28.2369 0.506234 28.313 0.616044 28.3652C0.725853 28.4174 0.845313 28.4444 0.966215 28.4444H5.74373L7.20697 19.4791C7.30184 18.8441 7.61438 18.2652 8.0878 17.8477C8.56123 17.4301 9.16414 17.2016 9.78703 17.2036ZM25.476 9.04889C24.111 15.7529 19.6902 19.3102 12.6446 19.3102H9.78703C9.65017 19.3099 9.51778 19.3604 9.41401 19.4525C9.31023 19.5445 9.24199 19.6719 9.22173 19.8116L7.31727 32H12.3275C12.6179 32.0003 12.899 31.8935 13.1199 31.6989C13.3408 31.5043 13.487 31.2347 13.5322 30.9387L13.5822 30.672L14.5387 24.4249L14.6007 24.08C14.6459 23.784 14.7922 23.5144 15.0131 23.3198C15.2339 23.1252 15.515 23.0184 15.8055 23.0187H16.5638C21.4757 23.0187 25.3208 20.96 26.4446 15.008C26.9065 12.5547 26.6721 10.5031 25.476 9.04889Z" fill="#F2F2F3"/>
</svg>
