<svg width="36" height="29" viewBox="0 0 36 29" fill="none" xmlns="http://www.w3.org/2000/svg">
<path d="M11.3835 28.6428C24.5371 28.6428 31.7304 17.6242 31.7304 8.06924C31.7304 7.75632 31.7241 7.44483 31.7101 7.13463C33.1098 6.11059 34.3177 4.84267 35.2773 3.3903C33.9959 3.96631 32.6171 4.35399 31.1706 4.52878C32.647 3.63362 33.7805 2.21745 34.3153 0.52939C32.9115 1.37141 31.3758 1.96499 29.7743 2.28455C28.4694 0.879047 26.6115 0 24.5544 0C20.6052 0 17.4028 3.23821 17.4028 7.22979C17.4028 7.79728 17.4656 8.34908 17.5883 8.87854C11.6448 8.57615 6.37457 5.69884 2.84744 1.32373C2.21217 2.42722 1.87803 3.68135 1.87914 4.95806C1.87914 7.46674 3.14159 9.68133 5.06147 10.977C3.92584 10.9419 2.81513 10.6318 1.82275 10.0726C1.82169 10.1029 1.82169 10.1325 1.82169 10.165C1.82169 13.6668 4.28664 16.5905 7.5588 17.253C6.94425 17.4223 6.31009 17.5078 5.67314 17.5075C5.21315 17.5075 4.76484 17.4617 4.32915 17.3771C5.23957 20.2502 7.87951 22.3409 11.0095 22.3993C8.56189 24.3391 5.47867 25.4944 2.12766 25.4944C1.55762 25.4949 0.988032 25.4615 0.421875 25.3943C3.58677 27.4454 7.34478 28.6423 11.3839 28.6423" fill="#F2F2F3"/>
</svg>
