<svg width="312" height="145" viewBox="0 0 312 145" fill="none" xmlns="http://www.w3.org/2000/svg">
<mask id="path-1-inside-1_741_756" fill="white">
<path d="M3.38583 0.797363H13.3535L27.5056 23.9298H27.5997V0.797363H34.9344V34.0855H25.3429L10.8145 10.3889H10.7205V34.0855H3.38583V0.797363Z"/>
<path d="M57.3818 0.797363H63.447L77.9283 34.0855H69.6532L66.7852 27.033H53.8555L51.0815 34.0855H42.9945L57.3818 0.797363ZM60.2028 10.4829L56.1593 20.8267H64.2933L60.2028 10.4829Z"/>
<path d="M88.1034 7.28573H78.606V0.797363H104.936V7.28573H95.4381V34.0855H88.1034V7.28573Z"/>
<path d="M141.431 21.2498C141.431 23.2246 141.133 25.0426 140.538 26.7038C139.942 28.3651 139.049 29.807 137.858 31.0294C136.698 32.2519 135.241 33.2079 133.485 33.8975C131.73 34.5871 129.708 34.9318 127.42 34.9318C125.101 34.9318 123.063 34.5871 121.308 33.8975C119.553 33.2079 118.079 32.2519 116.888 31.0294C115.729 29.807 114.851 28.3651 114.255 26.7038C113.66 25.0426 113.362 23.2246 113.362 21.2498V0.797363H120.697V20.9677C120.697 22.0021 120.853 22.9581 121.167 23.8358C121.512 24.7134 121.982 25.4814 122.577 26.1396C123.173 26.7665 123.878 27.268 124.693 27.6442C125.539 27.989 126.448 28.1614 127.42 28.1614C128.392 28.1614 129.285 27.989 130.1 27.6442C130.915 27.268 131.62 26.7665 132.216 26.1396C132.811 25.4814 133.266 24.7134 133.579 23.8358C133.924 22.9581 134.097 22.0021 134.097 20.9677V0.797363H141.431V21.2498Z"/>
<path d="M152.913 0.797363H165.796C167.489 0.797363 169.087 0.969759 170.592 1.31455C172.128 1.628 173.46 2.17653 174.588 2.96015C175.748 3.71243 176.657 4.74681 177.315 6.06329C178.005 7.34842 178.35 8.96268 178.35 10.9061C178.35 13.2569 177.738 15.263 176.516 16.9243C175.294 18.5542 173.507 19.5886 171.156 20.0274L179.619 34.0855H170.827L163.868 20.7797H160.248V34.0855H152.913V0.797363ZM160.248 14.5734H164.574C165.232 14.5734 165.921 14.5577 166.642 14.5264C167.395 14.4637 168.069 14.3226 168.664 14.1032C169.26 13.8525 169.746 13.4763 170.122 12.9748C170.529 12.4733 170.733 11.768 170.733 10.859C170.733 10.0127 170.56 9.33882 170.216 8.8373C169.871 8.33579 169.432 7.95965 168.899 7.70889C168.366 7.42678 167.755 7.23872 167.066 7.14468C166.376 7.05065 165.702 7.00363 165.044 7.00363H160.248V14.5734Z"/>
<path d="M199.058 0.797363H205.123L219.604 34.0855H211.329L208.461 27.033H195.531L192.757 34.0855H184.671L199.058 0.797363ZM201.879 10.4829L197.835 20.8267H205.969L201.879 10.4829Z"/>
<path d="M227.936 0.797363H235.271V27.3151H248.859V34.0855H227.936V0.797363Z"/>
<path d="M257.891 0.797363H265.226V27.3151H278.814V34.0855H257.891V0.797363Z"/>
<path d="M290.511 19.8863L278.004 0.797363H287.126L294.178 13.2569L301.654 0.797363H310.352L297.846 19.8863V34.0855H290.511V19.8863Z"/>
<path fill-rule="evenodd" clip-rule="evenodd" d="M137.886 45.1926L66.878 45.1246L101.795 106.955L106.784 115.787L122.995 144.494L180.998 45.2339L148.03 45.2023L137.886 45.1926ZM137.886 45.1926L101.795 106.955L106.784 115.787L148.03 45.2023L137.886 45.1926Z"/>
<path fill-rule="evenodd" clip-rule="evenodd" d="M211.091 82.9869L246.008 144.817L175 144.749L164.856 144.739L131.888 144.707L189.891 45.4472L206.102 74.154L211.091 82.9869ZM211.091 82.9869L175 144.749L164.856 144.739L206.102 74.154L211.091 82.9869Z"/>
<path d="M114.12 145L0 144.891L58.003 45.6305L114.12 145Z"/>
<path d="M197.88 45.0909L253.997 144.46L312 45.2002L197.88 45.0909Z"/>
</mask>
<path d="M3.38583 0.797363H13.3535L27.5056 23.9298H27.5997V0.797363H34.9344V34.0855H25.3429L10.8145 10.3889H10.7205V34.0855H3.38583V0.797363Z" fill="white"/>
<path d="M57.3818 0.797363H63.447L77.9283 34.0855H69.6532L66.7852 27.033H53.8555L51.0815 34.0855H42.9945L57.3818 0.797363ZM60.2028 10.4829L56.1593 20.8267H64.2933L60.2028 10.4829Z" fill="white"/>
<path d="M88.1034 7.28573H78.606V0.797363H104.936V7.28573H95.4381V34.0855H88.1034V7.28573Z" fill="white"/>
<path d="M141.431 21.2498C141.431 23.2246 141.133 25.0426 140.538 26.7038C139.942 28.3651 139.049 29.807 137.858 31.0294C136.698 32.2519 135.241 33.2079 133.485 33.8975C131.73 34.5871 129.708 34.9318 127.42 34.9318C125.101 34.9318 123.063 34.5871 121.308 33.8975C119.553 33.2079 118.079 32.2519 116.888 31.0294C115.729 29.807 114.851 28.3651 114.255 26.7038C113.66 25.0426 113.362 23.2246 113.362 21.2498V0.797363H120.697V20.9677C120.697 22.0021 120.853 22.9581 121.167 23.8358C121.512 24.7134 121.982 25.4814 122.577 26.1396C123.173 26.7665 123.878 27.268 124.693 27.6442C125.539 27.989 126.448 28.1614 127.42 28.1614C128.392 28.1614 129.285 27.989 130.1 27.6442C130.915 27.268 131.62 26.7665 132.216 26.1396C132.811 25.4814 133.266 24.7134 133.579 23.8358C133.924 22.9581 134.097 22.0021 134.097 20.9677V0.797363H141.431V21.2498Z" fill="white"/>
<path d="M152.913 0.797363H165.796C167.489 0.797363 169.087 0.969759 170.592 1.31455C172.128 1.628 173.46 2.17653 174.588 2.96015C175.748 3.71243 176.657 4.74681 177.315 6.06329C178.005 7.34842 178.35 8.96268 178.35 10.9061C178.35 13.2569 177.738 15.263 176.516 16.9243C175.294 18.5542 173.507 19.5886 171.156 20.0274L179.619 34.0855H170.827L163.868 20.7797H160.248V34.0855H152.913V0.797363ZM160.248 14.5734H164.574C165.232 14.5734 165.921 14.5577 166.642 14.5264C167.395 14.4637 168.069 14.3226 168.664 14.1032C169.26 13.8525 169.746 13.4763 170.122 12.9748C170.529 12.4733 170.733 11.768 170.733 10.859C170.733 10.0127 170.56 9.33882 170.216 8.8373C169.871 8.33579 169.432 7.95965 168.899 7.70889C168.366 7.42678 167.755 7.23872 167.066 7.14468C166.376 7.05065 165.702 7.00363 165.044 7.00363H160.248V14.5734Z" fill="white"/>
<path d="M199.058 0.797363H205.123L219.604 34.0855H211.329L208.461 27.033H195.531L192.757 34.0855H184.671L199.058 0.797363ZM201.879 10.4829L197.835 20.8267H205.969L201.879 10.4829Z" fill="white"/>
<path d="M227.936 0.797363H235.271V27.3151H248.859V34.0855H227.936V0.797363Z" fill="white"/>
<path d="M257.891 0.797363H265.226V27.3151H278.814V34.0855H257.891V0.797363Z" fill="white"/>
<path d="M290.511 19.8863L278.004 0.797363H287.126L294.178 13.2569L301.654 0.797363H310.352L297.846 19.8863V34.0855H290.511V19.8863Z" fill="white"/>
<path fill-rule="evenodd" clip-rule="evenodd" d="M137.886 45.1926L66.878 45.1246L101.795 106.955L106.784 115.787L122.995 144.494L180.998 45.2339L148.03 45.2023L137.886 45.1926ZM137.886 45.1926L101.795 106.955L106.784 115.787L148.03 45.2023L137.886 45.1926Z" fill="white" fill-opacity="0.5"/>
<path fill-rule="evenodd" clip-rule="evenodd" d="M211.091 82.9869L246.008 144.817L175 144.749L164.856 144.739L131.888 144.707L189.891 45.4472L206.102 74.154L211.091 82.9869ZM211.091 82.9869L175 144.749L164.856 144.739L206.102 74.154L211.091 82.9869Z" fill="white" fill-opacity="0.5"/>
<path d="M114.12 145L0 144.891L58.003 45.6305L114.12 145Z" fill="white" fill-opacity="0.5"/>
<path d="M197.88 45.0909L253.997 144.46L312 45.2002L197.88 45.0909Z" fill="white" fill-opacity="0.5"/>
<path d="M110.743 113.551L105.755 104.718L97.836 109.191L102.824 118.024L110.743 113.551ZM137.882 49.7399L148.026 49.7496L148.035 40.655L137.891 40.6453L137.882 49.7399ZM164.851 149.286L174.995 149.296L175.004 140.202L164.86 140.192L164.851 149.286ZM215.05 80.7508L210.062 71.9179L202.143 76.3901L207.131 85.223L215.05 80.7508ZM3.38583 0.797363V-8.29729H-5.70882V0.797363H3.38583ZM13.3535 0.797363L21.1114 -3.94887L18.4511 -8.29729H13.3535V0.797363ZM27.5056 23.9298L19.7477 28.6761L22.408 33.0245H27.5056V23.9298ZM27.5997 23.9298V33.0245H36.6943V23.9298H27.5997ZM27.5997 0.797363V-8.29729H18.505V0.797363H27.5997ZM34.9344 0.797363H44.029V-8.29729H34.9344V0.797363ZM34.9344 34.0855V43.1802H44.029V34.0855H34.9344ZM25.3429 34.0855L17.5894 38.8391L20.2509 43.1802H25.3429V34.0855ZM10.8145 10.3889L18.568 5.63527L15.9065 1.29422H10.8145V10.3889ZM10.7205 10.3889V1.29422H1.62586V10.3889H10.7205ZM10.7205 34.0855V43.1802H19.8152V34.0855H10.7205ZM3.38583 34.0855H-5.70882V43.1802H3.38583V34.0855ZM57.3818 0.797363V-8.29729H51.4048L49.0335 -2.81079L57.3818 0.797363ZM63.447 0.797363L71.7867 -2.83063L69.4085 -8.29729H63.447V0.797363ZM77.9283 34.0855V43.1802H91.8027L86.268 30.4575L77.9283 34.0855ZM69.6532 34.0855L61.2286 37.5116L63.5338 43.1802H69.6532V34.0855ZM66.7852 27.033L75.2099 23.6069L72.9046 17.9383H66.7852V27.033ZM53.8555 27.033V17.9383H47.6598L45.392 23.704L53.8555 27.033ZM51.0815 34.0855V43.1802H57.2771L59.5449 37.4145L51.0815 34.0855ZM42.9945 34.0855L34.6462 30.4774L29.156 43.1802H42.9945V34.0855ZM60.2028 10.4829L68.6602 7.1384L60.1539 -14.3718L51.7323 7.17172L60.2028 10.4829ZM56.1593 20.8267L47.6888 17.5155L42.8393 29.9213H56.1593V20.8267ZM64.2933 20.8267V29.9213H77.6698L72.7506 17.4822L64.2933 20.8267ZM88.1034 7.28573H97.1981V-1.80892H88.1034V7.28573ZM78.606 7.28573H69.5113V16.3804H78.606V7.28573ZM78.606 0.797363V-8.29729H69.5113V0.797363H78.606ZM104.936 0.797363H114.03V-8.29729H104.936V0.797363ZM104.936 7.28573V16.3804H114.03V7.28573H104.936ZM95.4381 7.28573V-1.80892H86.3435V7.28573H95.4381ZM95.4381 34.0855V43.1802H104.533V34.0855H95.4381ZM88.1034 34.0855H79.0088V43.1802H88.1034V34.0855ZM137.858 31.0294L131.344 24.6826L131.302 24.726L131.26 24.7699L137.858 31.0294ZM133.485 33.8975L130.16 25.4326L130.16 25.4326L133.485 33.8975ZM116.888 31.0294L110.29 37.2889L110.332 37.3329L110.374 37.3763L116.888 31.0294ZM113.362 0.797363V-8.29729H104.267V0.797363H113.362ZM120.697 0.797363H129.791V-8.29729H120.697V0.797363ZM121.167 23.8358L112.602 26.8946L112.65 27.0287L112.702 27.1613L121.167 23.8358ZM122.577 26.1396L115.833 32.2414L115.908 32.3234L115.984 32.4036L122.577 26.1396ZM124.693 27.6442L120.882 35.9018L121.07 35.9885L121.262 36.0667L124.693 27.6442ZM130.1 27.6442L133.644 36.0201L133.778 35.9631L133.911 35.9018L130.1 27.6442ZM132.216 26.1396L138.809 32.4036L138.886 32.3234L138.96 32.2414L132.216 26.1396ZM133.579 23.8358L125.114 20.5103L125.062 20.6428L125.015 20.7769L133.579 23.8358ZM134.097 0.797363V-8.29729H125.002V0.797363H134.097ZM141.431 0.797363H150.526V-8.29729H141.431V0.797363ZM152.913 0.797363V-8.29729H143.819V0.797363H152.913ZM170.592 1.31455L168.56 10.1794L168.666 10.2037L168.773 10.2255L170.592 1.31455ZM174.588 2.96015L169.401 10.4302L169.519 10.5121L169.639 10.5902L174.588 2.96015ZM177.315 6.06329L169.181 10.1305L169.239 10.2478L169.301 10.3634L177.315 6.06329ZM176.516 16.9243L183.792 22.381L183.817 22.3479L183.841 22.3145L176.516 16.9243ZM171.156 20.0274L169.487 11.0872L156.606 13.4917L163.364 24.718L171.156 20.0274ZM179.619 34.0855V43.1802H195.71L187.411 29.3949L179.619 34.0855ZM170.827 34.0855L162.768 38.3002L165.32 43.1802H170.827V34.0855ZM163.868 20.7797L171.927 16.565L169.375 11.685H163.868V20.7797ZM160.248 20.7797V11.685H151.153V20.7797H160.248ZM160.248 34.0855V43.1802H169.343V34.0855H160.248ZM152.913 34.0855H143.819V43.1802H152.913V34.0855ZM160.248 14.5734H151.153V23.668H160.248V14.5734ZM166.642 14.5264L167.037 23.6124L167.218 23.6046L167.398 23.5896L166.642 14.5264ZM168.664 14.1032L171.808 22.6371L172.002 22.5655L172.193 22.4852L168.664 14.1032ZM170.122 12.9748L163.063 7.23979L162.952 7.3768L162.846 7.51803L170.122 12.9748ZM170.216 8.8373L162.721 13.9897L162.721 13.9897L170.216 8.8373ZM168.899 7.70889L164.644 15.7466L164.833 15.8468L165.027 15.9379L168.899 7.70889ZM167.066 7.14468L165.837 16.1559L165.837 16.1559L167.066 7.14468ZM160.248 7.00363V-2.09102H151.153V7.00363H160.248ZM199.058 0.797363V-8.29729H193.081L190.71 -2.8108L199.058 0.797363ZM205.123 0.797363L213.463 -2.83063L211.085 -8.29729H205.123V0.797363ZM219.604 34.0855V43.1802H233.479L227.944 30.4575L219.604 34.0855ZM211.329 34.0855L202.905 37.5116L205.21 43.1802H211.329V34.0855ZM208.461 27.033L216.886 23.6069L214.581 17.9383H208.461V27.033ZM195.531 27.033V17.9383H189.336L187.068 23.704L195.531 27.033ZM192.757 34.0855V43.1802H198.953L201.221 37.4145L192.757 34.0855ZM184.671 34.0855L176.322 30.4774L170.832 43.1802H184.671V34.0855ZM201.879 10.4829L210.336 7.1384L201.83 -14.3718L193.408 7.17173L201.879 10.4829ZM197.835 20.8267L189.365 17.5155L184.515 29.9213H197.835V20.8267ZM205.969 20.8267V29.9213H219.346L214.427 17.4822L205.969 20.8267ZM227.936 0.797363V-8.29729H218.842V0.797363H227.936ZM235.271 0.797363H244.366V-8.29729H235.271V0.797363ZM235.271 27.3151H226.176V36.4097H235.271V27.3151ZM248.859 27.3151H257.954V18.2204H248.859V27.3151ZM248.859 34.0855V43.1802H257.954V34.0855H248.859ZM227.936 34.0855H218.842V43.1802H227.936V34.0855ZM257.891 0.797363V-8.29729H248.797V0.797363H257.891ZM265.226 0.797363H274.321V-8.29729H265.226V0.797363ZM265.226 27.3151H256.131V36.4097H265.226V27.3151ZM278.814 27.3151H287.909V18.2204H278.814V27.3151ZM278.814 34.0855V43.1802H287.909V34.0855H278.814ZM257.891 34.0855H248.797V43.1802H257.891V34.0855ZM290.511 19.8863H299.606V17.1724L298.118 14.9022L290.511 19.8863ZM278.004 0.797363V-8.29729H261.173L270.397 5.78147L278.004 0.797363ZM287.126 0.797363L295.04 -3.68265L292.428 -8.29729H287.126V0.797363ZM294.178 13.2569L286.264 17.7369L293.949 31.3152L301.977 17.9361L294.178 13.2569ZM301.654 0.797363V-8.29729H296.505L293.855 -3.8818L301.654 0.797363ZM310.352 0.797363L317.96 5.78148L327.184 -8.29729L310.352 -8.29729V0.797363ZM297.846 19.8863L290.238 14.9022L288.751 17.1724V19.8863H297.846ZM297.846 34.0855V43.1802H306.94V34.0855H297.846ZM290.511 34.0855H281.416V43.1802H290.511V34.0855ZM66.878 45.1246L66.8867 36.0299L51.2888 36.015L58.9589 49.5968L66.878 45.1246ZM137.886 45.1926L145.739 49.7811L153.725 36.1131L137.895 36.098L137.886 45.1926ZM101.795 106.955L93.8764 111.427L101.661 125.211L109.648 111.543L101.795 106.955ZM106.784 115.787L98.9314 111.199L96.2953 115.71L98.8646 120.26L106.784 115.787ZM122.995 144.494L115.076 148.966L122.861 162.751L130.848 149.083L122.995 144.494ZM180.998 45.2339L188.851 49.8224L196.838 36.1544L181.007 36.1393L180.998 45.2339ZM148.03 45.2023L148.039 36.1077L142.814 36.1027L140.178 40.6138L148.03 45.2023ZM246.008 144.817L245.999 153.911L261.597 153.926L253.927 140.345L246.008 144.817ZM211.091 82.9869L219.01 78.5147L211.225 64.7304L203.238 78.3984L211.091 82.9869ZM175 144.749L167.148 140.16L159.161 153.828L174.991 153.843L175 144.749ZM164.856 144.739L164.847 153.834L170.072 153.839L172.708 149.328L164.856 144.739ZM131.888 144.707L124.035 140.119L116.049 153.787L131.879 153.802L131.888 144.707ZM189.891 45.4472L197.81 40.975L190.025 27.1907L182.038 40.8587L189.891 45.4472ZM206.102 74.154L213.955 78.7425L216.591 74.2313L214.022 69.6818L206.102 74.154ZM114.12 145L114.112 154.095L129.71 154.11L122.04 140.528L114.12 145ZM0 144.891L-7.85228 140.302L-15.8392 153.97L-0.00870917 153.985L0 144.891ZM58.003 45.6305L65.9221 41.1583L58.1376 27.374L50.1507 41.042L58.003 45.6305ZM197.88 45.0909L197.888 35.9962L182.29 35.9813L189.961 49.5631L197.88 45.0909ZM253.997 144.46L246.078 148.933L253.862 162.717L261.849 149.049L253.997 144.46ZM312 45.2002L319.852 49.7887L327.839 36.1207L312.009 36.1056L312 45.2002ZM3.38583 9.89201H13.3535V-8.29729H3.38583V9.89201ZM5.59551 5.5436L19.7477 28.6761L35.2636 19.1836L21.1114 -3.94887L5.59551 5.5436ZM27.5056 33.0245H27.5997V14.8352H27.5056V33.0245ZM36.6943 23.9298V0.797363H18.505V23.9298H36.6943ZM27.5997 9.89201H34.9344V-8.29729H27.5997V9.89201ZM25.8397 0.797363V34.0855H44.029V0.797363H25.8397ZM34.9344 24.9909H25.3429V43.1802H34.9344V24.9909ZM33.0963 29.3319L18.568 5.63527L3.06109 15.1425L17.5894 38.8391L33.0963 29.3319ZM10.8145 1.29422H10.7205V19.4835H10.8145V1.29422ZM1.62586 10.3889V34.0855H19.8152V10.3889H1.62586ZM10.7205 24.9909H3.38583V43.1802H10.7205V24.9909ZM12.4805 34.0855V0.797363H-5.70882V34.0855H12.4805ZM57.3818 9.89201H63.447V-8.29729H57.3818V9.89201ZM55.1073 4.42536L69.5886 37.7135L86.268 30.4575L71.7867 -2.83063L55.1073 4.42536ZM77.9283 24.9909H69.6532V43.1802H77.9283V24.9909ZM78.0779 30.6595L75.2099 23.6069L58.3605 30.459L61.2286 37.5116L78.0779 30.6595ZM66.7852 17.9383H53.8555V36.1276H66.7852V17.9383ZM45.392 23.704L42.618 30.7566L59.5449 37.4145L62.319 30.3619L45.392 23.704ZM51.0815 24.9909H42.9945V43.1802H51.0815V24.9909ZM51.3428 37.6937L65.73 4.40552L49.0335 -2.81079L34.6462 30.4774L51.3428 37.6937ZM51.7323 7.17172L47.6888 17.5155L64.6298 24.1379L68.6733 13.7941L51.7323 7.17172ZM56.1593 29.9213H64.2933V11.732H56.1593V29.9213ZM72.7506 17.4822L68.6602 7.1384L51.7454 13.8274L55.8359 24.1712L72.7506 17.4822ZM88.1034 -1.80892H78.606V16.3804H88.1034V-1.80892ZM87.7006 7.28573V0.797363H69.5113V7.28573H87.7006ZM78.606 9.89201H104.936V-8.29729H78.606V9.89201ZM95.841 0.797363V7.28573H114.03V0.797363H95.841ZM104.936 -1.80892H95.4381V16.3804H104.936V-1.80892ZM86.3435 7.28573V34.0855H104.533V7.28573H86.3435ZM95.4381 24.9909H88.1034V43.1802H95.4381V24.9909ZM97.1981 34.0855V7.28573H79.0088V34.0855H97.1981ZM132.337 21.2498C132.337 22.3019 132.18 23.0681 131.977 23.6347L149.099 29.7729C150.087 27.017 150.526 24.1472 150.526 21.2498H132.337ZM131.977 23.6347C131.806 24.1122 131.595 24.4255 131.344 24.6826L144.372 37.3763C146.503 35.1885 148.079 32.618 149.099 29.7729L131.977 23.6347ZM131.26 24.7699C131.12 24.9171 130.825 25.1714 130.16 25.4326L136.811 42.3623C139.657 41.2443 142.276 39.5866 144.456 37.2889L131.26 24.7699ZM130.16 25.4326C129.663 25.6276 128.806 25.8372 127.42 25.8372V44.0265C130.61 44.0265 133.797 43.5465 136.811 42.3623L130.16 25.4326ZM127.42 25.8372C125.985 25.8372 125.117 25.6225 124.633 25.4326L117.982 42.3623C121.01 43.5516 124.216 44.0265 127.42 44.0265V25.8372ZM124.633 25.4326C123.952 25.165 123.602 24.8879 123.402 24.6826L110.374 37.3763C112.557 39.6159 115.153 41.2508 117.982 42.3623L124.633 25.4326ZM123.486 24.7699C123.236 24.5064 123.007 24.1652 122.816 23.6347L105.694 29.7729C106.695 32.565 108.221 35.1075 110.29 37.2889L123.486 24.7699ZM122.816 23.6347C122.613 23.0681 122.457 22.3019 122.457 21.2498H104.267C104.267 24.1472 104.706 27.017 105.694 29.7729L122.816 23.6347ZM122.457 21.2498V0.797363H104.267V21.2498H122.457ZM113.362 9.89201H120.697V-8.29729H113.362V9.89201ZM111.602 0.797363V20.9677H129.791V0.797363H111.602ZM111.602 20.9677C111.602 22.9307 111.902 24.9335 112.602 26.8946L129.732 20.7769C129.766 20.8738 129.782 20.9481 129.789 20.9892C129.796 21.0291 129.791 21.025 129.791 20.9677H111.602ZM112.702 27.1613C113.423 28.9964 114.456 30.7195 115.833 32.2414L129.321 20.0379C129.408 20.1334 129.479 20.2307 129.534 20.3212C129.589 20.4109 129.619 20.4781 129.632 20.5103L112.702 27.1613ZM115.984 32.4036C117.402 33.8969 119.062 35.0619 120.882 35.9018L128.504 19.3866C128.694 19.4742 128.943 19.6362 129.171 19.8757L115.984 32.4036ZM121.262 36.0667C123.265 36.8829 125.347 37.256 127.42 37.256V19.0667C127.474 19.0667 127.573 19.0718 127.704 19.0967C127.837 19.1219 127.98 19.1629 128.125 19.2217L121.262 36.0667ZM127.42 37.256C129.489 37.256 131.602 36.8838 133.644 36.0201L126.556 19.2683C126.968 19.0941 127.294 19.0667 127.42 19.0667V37.256ZM133.911 35.9018C135.731 35.0618 137.391 33.8968 138.809 32.4036L125.622 19.8757C125.85 19.6362 126.099 19.4742 126.289 19.3866L133.911 35.9018ZM138.96 32.2414C140.396 30.6544 141.45 28.8393 142.144 26.8947L125.015 20.7769C125.082 20.5876 125.227 20.3084 125.472 20.0379L138.96 32.2414ZM142.044 27.1613C142.844 25.126 143.191 23.0296 143.191 20.9677H125.002C125.002 20.9784 125.001 20.9343 125.017 20.8466C125.033 20.7573 125.063 20.6412 125.114 20.5103L142.044 27.1613ZM143.191 20.9677V0.797363H125.002V20.9677H143.191ZM134.097 9.89201H141.431V-8.29729H134.097V9.89201ZM132.337 0.797363V21.2498H150.526V0.797363H132.337ZM152.913 9.89201H165.796V-8.29729H152.913V9.89201ZM165.796 9.89201C166.87 9.89201 167.783 10.0012 168.56 10.1794L172.623 -7.5503C170.392 -8.06168 168.107 -8.29729 165.796 -8.29729V9.89201ZM168.773 10.2255C169.027 10.2774 169.189 10.3332 169.28 10.3707C169.326 10.3895 169.356 10.4047 169.374 10.4143C169.391 10.4238 169.4 10.4294 169.401 10.4302L179.776 -4.50993C177.501 -6.08993 174.986 -7.07085 172.41 -7.59642L168.773 10.2255ZM169.639 10.5902C169.523 10.5147 169.406 10.4148 169.308 10.3037C169.213 10.1952 169.177 10.1231 169.181 10.1305L185.45 1.99604C184.115 -0.673313 182.146 -2.97775 179.538 -4.6699L169.639 10.5902ZM169.301 10.3634C169.192 10.1595 169.18 10.0596 169.197 10.1375C169.215 10.2218 169.255 10.4637 169.255 10.9061H187.444C187.444 7.94174 186.925 4.73699 185.329 1.76317L169.301 10.3634ZM169.255 10.9061C169.255 11.2904 169.206 11.4761 169.191 11.5231C169.184 11.5486 169.18 11.5538 169.184 11.5464C169.188 11.5388 169.191 11.5333 169.191 11.534L183.841 22.3145C186.37 18.8779 187.444 14.9138 187.444 10.9061H169.255ZM169.24 11.4675C169.298 11.39 169.374 11.306 169.464 11.2259C169.555 11.146 169.639 11.0887 169.702 11.0517C169.833 10.976 169.804 11.028 169.487 11.0872L172.825 28.9676C177.001 28.1881 180.969 26.1444 183.792 22.381L169.24 11.4675ZM163.364 24.718L171.827 38.7762L187.411 29.3949L178.948 15.3367L163.364 24.718ZM179.619 24.9909H170.827V43.1802H179.619V24.9909ZM178.886 29.8709L171.927 16.565L155.809 24.9943L162.768 38.3002L178.886 29.8709ZM163.868 11.685H160.248V29.8743H163.868V11.685ZM151.153 20.7797V34.0855H169.343V20.7797H151.153ZM160.248 24.9909H152.913V43.1802H160.248V24.9909ZM162.008 34.0855V0.797363H143.819V34.0855H162.008ZM160.248 23.668H164.574V5.47875H160.248V23.668ZM164.574 23.668C165.375 23.668 166.197 23.649 167.037 23.6124L166.247 5.44032C165.646 5.46648 165.088 5.47875 164.574 5.47875V23.668ZM167.398 23.5896C168.817 23.4713 170.315 23.1873 171.808 22.6371L165.52 5.56933C165.822 5.45797 165.972 5.45605 165.887 5.46315L167.398 23.5896ZM172.193 22.4852C174.227 21.6289 176.023 20.264 177.397 18.4316L162.846 7.51803C163.468 6.68869 164.292 6.07607 165.135 5.72128L172.193 22.4852ZM177.18 18.7098C179.35 16.0396 179.828 13.0211 179.828 10.859H161.638C161.638 10.515 161.709 8.90704 163.063 7.23979L177.18 18.7098ZM179.828 10.859C179.828 8.86906 179.432 6.18953 177.71 3.68491L162.721 13.9897C161.689 12.4881 161.638 11.1564 161.638 10.859H179.828ZM177.71 3.68493C176.484 1.90135 174.813 0.440623 172.772 -0.520118L165.027 15.9379C164.051 15.4787 163.258 14.7702 162.721 13.9897L177.71 3.68493ZM173.154 -0.328855C171.544 -1.18127 169.881 -1.65016 168.294 -1.86657L165.837 16.1559C165.629 16.1276 165.188 16.0348 164.644 15.7466L173.154 -0.328855ZM168.294 -1.86657C167.221 -2.01299 166.136 -2.09102 165.044 -2.09102V16.0983C165.268 16.0983 165.531 16.1143 165.837 16.1559L168.294 -1.86657ZM165.044 -2.09102H160.248V16.0983H165.044V-2.09102ZM151.153 7.00363V14.5734H169.343V7.00363H151.153ZM199.058 9.89201H205.123V-8.29729H199.058V9.89201ZM196.783 4.42536L211.265 37.7135L227.944 30.4575L213.463 -2.83063L196.783 4.42536ZM219.604 24.9909H211.329V43.1802H219.604V24.9909ZM219.754 30.6595L216.886 23.6069L200.037 30.459L202.905 37.5116L219.754 30.6595ZM208.461 17.9383H195.531V36.1276H208.461V17.9383ZM187.068 23.704L184.294 30.7566L201.221 37.4145L203.995 30.3619L187.068 23.704ZM192.757 24.9909H184.671V43.1802H192.757V24.9909ZM193.019 37.6937L207.406 4.40553L190.71 -2.8108L176.322 30.4774L193.019 37.6937ZM193.408 7.17173L189.365 17.5155L206.306 24.1379L210.349 13.7941L193.408 7.17173ZM197.835 29.9213H205.969V11.732H197.835V29.9213ZM214.427 17.4822L210.336 7.1384L193.421 13.8274L197.512 24.1712L214.427 17.4822ZM227.936 9.89201H235.271V-8.29729H227.936V9.89201ZM226.176 0.797363V27.3151H244.366V0.797363H226.176ZM235.271 36.4097H248.859V18.2204H235.271V36.4097ZM239.764 27.3151V34.0855H257.954V27.3151H239.764ZM248.859 24.9909H227.936V43.1802H248.859V24.9909ZM237.031 34.0855V0.797363H218.842V34.0855H237.031ZM257.891 9.89201H265.226V-8.29729H257.891V9.89201ZM256.131 0.797363V27.3151H274.321V0.797363H256.131ZM265.226 36.4097H278.814V18.2204H265.226V36.4097ZM269.719 27.3151V34.0855H287.909V27.3151H269.719ZM278.814 24.9909H257.891V43.1802H278.814V24.9909ZM266.986 34.0855V0.797363H248.797V34.0855H266.986ZM298.118 14.9022L285.612 -4.18674L270.397 5.78147L282.904 24.8704L298.118 14.9022ZM278.004 9.89201H287.126V-8.29729H278.004V9.89201ZM279.211 5.27737L286.264 17.7369L302.093 8.77691L295.04 -3.68265L279.211 5.27737ZM301.977 17.9361L309.453 5.47652L293.855 -3.8818L286.38 8.57776L301.977 17.9361ZM301.654 9.89201H310.352V-8.29729H301.654V9.89201ZM302.745 -4.18675L290.238 14.9022L305.453 24.8705L317.96 5.78148L302.745 -4.18675ZM288.751 19.8863V34.0855H306.94V19.8863H288.751ZM297.846 24.9909H290.511V43.1802H297.846V24.9909ZM299.606 34.0855V19.8863H281.416V34.0855H299.606ZM66.8693 54.2192L137.878 54.2873L137.895 36.098L66.8867 36.0299L66.8693 54.2192ZM109.715 102.482L74.7971 40.6524L58.9589 49.5968L93.8764 111.427L109.715 102.482ZM130.915 140.022L114.703 111.315L98.8646 120.26L115.076 148.966L130.915 140.022ZM173.146 40.6454L115.143 139.906L130.848 149.083L188.851 49.8224L173.146 40.6454ZM148.022 54.297L180.99 54.3286L181.007 36.1393L148.039 36.1077L148.022 54.297ZM109.648 111.543L145.739 49.7811L130.034 40.6041L93.9432 102.366L109.648 111.543ZM140.178 40.6138L98.9314 111.199L114.636 120.376L155.883 49.7908L140.178 40.6138ZM253.927 140.345L219.01 78.5147L203.172 87.4591L238.089 149.289L253.927 140.345ZM174.991 153.843L245.999 153.911L246.017 135.722L175.009 135.654L174.991 153.843ZM131.879 153.802L164.847 153.834L164.865 135.644L131.896 135.613L131.879 153.802ZM182.038 40.8587L124.035 140.119L139.74 149.296L197.743 50.0357L182.038 40.8587ZM214.022 69.6818L197.81 40.975L181.972 49.9194L198.183 78.6262L214.022 69.6818ZM182.852 149.337L218.943 87.5754L203.238 78.3984L167.148 140.16L182.852 149.337ZM198.25 69.5655L157.004 140.151L172.708 149.328L213.955 78.7425L198.25 69.5655ZM114.129 135.905L0.00870917 135.796L-0.00870917 153.985L114.112 154.095L114.129 135.905ZM7.85228 149.479L65.8553 50.219L50.1507 41.042L-7.85228 140.302L7.85228 149.479ZM50.0839 50.1027L106.201 149.472L122.04 140.528L65.9221 41.1583L50.0839 50.1027ZM189.961 49.5631L246.078 148.933L261.916 139.988L205.799 40.6187L189.961 49.5631ZM261.849 149.049L319.852 49.7887L304.148 40.6117L246.145 139.872L261.849 149.049ZM312.009 36.1056L197.888 35.9962L197.871 54.1855L311.991 54.2949L312.009 36.1056Z" fill="white" mask="url(#path-1-inside-1_741_756)"/>
</svg>
