<svg width="33" height="33" viewBox="0 0 33 33" fill="none" xmlns="http://www.w3.org/2000/svg">
<path fill-rule="evenodd" clip-rule="evenodd" d="M32.7895 16.1645C32.7895 25.0919 25.5524 32.329 16.625 32.329C7.69755 32.329 0.460449 25.0919 0.460449 16.1645C0.460449 7.2371 7.69755 0 16.625 0C25.5524 0 32.7895 7.2371 32.7895 16.1645ZM18.3002 4.96186H21.881H21.8828V8.82614C21.6777 8.82734 21.0679 8.8269 20.5095 8.82651C20.2488 8.82632 19.9992 8.82614 19.8073 8.82614C19.8047 8.82614 19.8006 8.82606 19.7952 8.82595C19.6449 8.82286 18.4645 8.79859 18.4645 9.97369C18.4722 10.4709 18.4645 12.1829 18.4645 12.1829H21.8967L21.6186 16.0315H18.5448V27.3675H13.8877V16.1058H11.3533V12.1939H13.8116C13.8116 11.8 13.8128 11.4212 13.814 11.0504C13.8163 10.3319 13.8185 9.64377 13.8116 8.93586C13.8116 5.8556 16.1752 4.96186 18.3002 4.96186Z" fill="#F2F2F3"/>
</svg>
