<svg width="517" height="314" viewBox="0 0 517 314" fill="none" xmlns="http://www.w3.org/2000/svg">
<path d="M52.5596 3.15625H65.9875L85.0526 34.3192H85.1793V3.15625H95.0602V48.0005H82.139L62.5672 16.0775H62.4405V48.0005H52.5596V3.15625Z" fill="#F2F2F3"/>
<path d="M125.3 3.15625H133.471L152.98 48.0005H141.832L137.968 38.4996H120.55L116.813 48.0005H105.918L125.3 3.15625ZM129.101 16.2041L123.653 30.1388H134.611L129.101 16.2041Z" fill="#F2F2F3"/>
<path d="M166.687 11.8971H153.893V3.15625H189.363V11.8971H176.568V48.0005H166.687V11.8971Z" fill="#F2F2F3"/>
<path d="M238.528 30.7088C238.528 33.3691 238.127 35.8182 237.324 38.0562C236.522 40.2942 235.318 42.2366 233.714 43.8834C232.152 45.5302 230.188 46.8181 227.823 47.7471C225.459 48.6761 222.735 49.1406 219.653 49.1406C216.528 49.1406 213.783 48.6761 211.418 47.7471C209.054 46.8181 207.069 45.5302 205.465 43.8834C203.902 42.2366 202.72 40.2942 201.918 38.0562C201.115 35.8182 200.714 33.3691 200.714 30.7088V3.15625H210.595V30.3288C210.595 31.7223 210.806 33.0102 211.228 34.1925C211.693 35.3748 212.326 36.4094 213.129 37.2961C213.931 38.1406 214.881 38.8163 215.979 39.323C217.119 39.7875 218.344 40.0197 219.653 40.0197C220.962 40.0197 222.165 39.7875 223.263 39.323C224.361 38.8163 225.311 38.1406 226.113 37.2961C226.915 36.4094 227.528 35.3748 227.95 34.1925C228.415 33.0102 228.647 31.7223 228.647 30.3288V3.15625H238.528V30.7088Z" fill="#F2F2F3"/>
<path d="M253.996 3.15625H271.351C273.631 3.15625 275.785 3.38849 277.811 3.85298C279.88 4.27524 281.675 5.0142 283.195 6.06985C284.758 7.08328 285.982 8.47675 286.869 10.2502C287.798 11.9815 288.262 14.1562 288.262 16.7742C288.262 19.9412 287.439 22.6436 285.792 24.8816C284.145 27.0774 281.738 28.4709 278.571 29.062L289.973 48.0005H278.128L268.754 30.0754H263.877V48.0005H253.996V3.15625ZM263.877 21.7147H269.704C270.591 21.7147 271.52 21.6935 272.491 21.6513C273.504 21.5669 274.412 21.3769 275.214 21.0813C276.017 20.7435 276.671 20.2367 277.178 19.5611C277.727 18.8855 278.001 17.9354 278.001 16.7109C278.001 15.5707 277.769 14.6629 277.305 13.9873C276.84 13.3116 276.249 12.8049 275.531 12.4671C274.813 12.0871 273.99 11.8337 273.061 11.7071C272.132 11.5804 271.224 11.517 270.337 11.517H263.877V21.7147Z" fill="#F2F2F3"/>
<path d="M316.159 3.15625H324.33L343.839 48.0005H332.691L328.827 38.4996H311.409L307.672 48.0005H296.778L316.159 3.15625ZM319.96 16.2041L314.513 30.1388H325.47L319.96 16.2041Z" fill="#F2F2F3"/>
<path d="M355.062 3.15625H364.944V38.8796H383.249V48.0005H355.062V3.15625Z" fill="#F2F2F3"/>
<path d="M395.417 3.15625H405.298V38.8796H423.603V48.0005H395.417V3.15625Z" fill="#F2F2F3"/>
<path d="M439.361 28.872L422.512 3.15625H434.8L444.301 19.9412L454.372 3.15625H466.09L449.242 28.872V48.0005H439.361V28.872Z" fill="#F2F2F3"/>
<path fill-rule="evenodd" clip-rule="evenodd" d="M51.5391 76.5046H64.7714V77.6873C64.8035 77.6673 64.8357 77.6474 64.868 77.6276C65.7902 77.0641 66.8121 76.6203 67.9184 76.2836C69.0995 75.9241 70.3515 75.7543 71.6602 75.7543C74.0786 75.7543 76.305 76.2536 78.2802 77.3149C79.3756 77.8915 80.3216 78.6372 81.1191 79.5353C81.958 78.6039 82.9057 77.8356 83.9722 77.2591C85.8987 76.2178 88.1624 75.7543 90.6673 75.7543C92.9282 75.7543 94.9806 76.1427 96.7284 77.0345C98.4397 77.8464 99.8375 79.0154 100.853 80.5506C101.864 81.9773 102.542 83.6352 102.923 85.4778C103.336 87.2311 103.536 89.0949 103.536 91.0612V111.12H89.9283V91.3113C89.9283 90.21 89.6882 89.4077 89.3119 88.8056L89.2849 88.7625L89.26 88.7181C89.1616 88.5422 88.9514 88.2363 87.9163 88.2363C87.0682 88.2363 86.4946 88.3839 86.1109 88.5758L86.0884 88.5871L86.0656 88.5978C85.6873 88.7758 85.3898 89.017 85.1471 89.3364C84.9009 89.7163 84.6919 90.188 84.5402 90.776C84.4093 91.4485 84.3411 92.1676 84.3411 92.9369V111.12H70.7337V92.9369C70.7337 92.4447 70.7146 91.8175 70.6741 91.0473C70.6425 90.4462 70.5331 89.8965 70.354 89.389C70.2302 89.0382 70.0303 88.7423 69.7214 88.4776L69.6919 88.4523L69.6633 88.4259C69.6613 88.424 69.457 88.2363 68.6591 88.2363C67.6993 88.2363 67.1393 88.4206 66.8231 88.6139L66.7857 88.6367L66.7474 88.658C66.3483 88.8797 66.0522 89.1732 65.8284 89.5692C65.5909 90.0239 65.4099 90.5861 65.3147 91.2844C65.2035 92.0994 65.1465 92.9623 65.1465 93.8747V111.12H51.5391V76.5046ZM63.9699 88.5603C64.3867 87.81 64.9702 87.2264 65.7205 86.8096C66.4708 86.3511 67.4503 86.1219 68.6591 86.1219C69.7429 86.1219 70.5557 86.372 71.0975 86.8721C71.6811 87.3723 72.0979 87.9767 72.348 88.6853C72.5981 89.3939 72.744 90.1442 72.7856 90.9361C72.8273 91.7281 72.8482 92.395 72.8482 92.9369V109.005H82.2267V92.9369C82.2267 92.0199 82.31 91.1446 82.4767 90.3109C82.6852 89.4773 82.9978 88.7478 83.4146 88.1226C83.8731 87.4974 84.4566 87.018 85.1652 86.6846C85.9155 86.3094 86.8325 86.1219 87.9163 86.1219C89.4585 86.1219 90.5214 86.6429 91.1049 87.6849C91.7302 88.6853 92.0428 89.8941 92.0428 91.3113V109.005H101.421V91.0612C101.421 89.2272 101.234 87.5182 100.859 85.9343C100.525 84.3087 99.9416 82.9123 99.1079 81.7452C98.316 80.5365 97.2114 79.5986 95.7942 78.9317C94.4187 78.2231 92.7097 77.8688 90.6673 77.8688C88.4164 77.8688 86.5199 78.2856 84.9777 79.1193C84.0273 79.633 83.1639 80.3604 82.3876 81.3016C81.9042 81.8876 81.4546 82.5565 81.0387 83.3083C80.6974 82.5405 80.2863 81.8565 79.8054 81.2563C79.1114 80.3903 78.2721 79.6988 77.2873 79.1818C75.6617 78.3065 73.786 77.8688 71.6602 77.8688C70.5348 77.8688 69.4928 78.0147 68.5341 78.3065C67.5754 78.5982 66.7209 78.9734 65.9706 79.4319C65.5359 79.6975 65.1361 79.9842 64.7714 80.2919C64.5066 80.5152 64.2603 80.7495 64.0324 80.995C63.4905 81.5785 63.0737 82.1621 62.7819 82.7456H62.6569V78.6191H53.6535V109.005H63.032V93.8747C63.032 92.8744 63.0946 91.9157 63.2196 90.9987C63.3446 90.0817 63.5947 89.2689 63.9699 88.5603ZM129.001 105.191H128.876C128.316 106.066 127.653 106.808 126.887 107.417C126.229 107.94 125.496 108.365 124.687 108.693C122.978 109.401 121.165 109.756 119.248 109.756C117.831 109.756 116.455 109.547 115.121 109.13C113.829 108.755 112.683 108.172 111.682 107.38C110.682 106.588 109.89 105.608 109.307 104.441C108.723 103.274 108.431 101.919 108.431 100.377C108.431 98.6265 108.744 97.1468 109.369 95.938C110.036 94.7292 110.911 93.7288 111.995 92.9369C113.12 92.1449 114.392 91.5405 115.809 91.1237C117.226 90.6652 118.685 90.3318 120.186 90.1233C121.728 89.9149 123.249 89.7899 124.75 89.7482C126.292 89.7065 127.709 89.6857 129.001 89.6857C129.001 88.903 128.868 88.1984 128.602 87.5718C128.301 86.8637 127.829 86.2554 127.188 85.7467C126.021 84.7463 124.625 84.2462 122.999 84.2462C121.457 84.2462 120.04 84.5796 118.748 85.2465C117.999 85.6206 117.296 86.0843 116.637 86.6375C116.195 87.0088 115.773 87.4205 115.371 87.8725L110.369 82.7456C110.891 82.2609 111.439 81.8132 112.013 81.4026C113.364 80.4362 114.859 79.6751 116.497 79.1193C118.831 78.2856 121.248 77.8688 123.749 77.8688C126.5 77.8688 128.751 78.2231 130.502 78.9317C132.294 79.5986 133.711 80.599 134.753 81.9328C135.837 83.2666 136.587 84.9131 137.004 86.8721C137.421 88.7895 137.63 91.0195 137.63 93.5621V109.005H129.001V105.191ZM126.887 109.968C126.443 110.224 125.977 110.452 125.489 110.649C123.516 111.466 121.43 111.87 119.248 111.87C117.627 111.87 116.045 111.632 114.511 111.155C112.979 110.707 111.591 110.004 110.37 109.038C109.121 108.049 108.134 106.824 107.415 105.387C106.66 103.877 106.317 102.188 106.317 100.377C106.317 98.3824 106.672 96.5492 107.491 94.9666L107.504 94.9414L107.518 94.9165C108.329 93.4458 109.408 92.2087 110.747 91.2297L110.763 91.2185L110.778 91.2076C111.77 90.51 112.848 89.9425 114.006 89.5011L107.342 82.6709L108.931 81.1961C110.903 79.365 113.201 78.0071 115.801 77.1224C118.361 76.2102 121.014 75.7543 123.749 75.7543C126.646 75.7543 129.182 76.1224 131.267 76.9604C133.358 77.7433 135.101 78.9501 136.407 80.6151C137.726 82.244 138.598 84.2036 139.071 86.4264C139.527 88.5264 139.744 90.9117 139.744 93.5621V111.12H126.887V109.968ZM117.84 88.3919C118.424 87.8789 119.042 87.4635 119.693 87.1378L119.705 87.1317L119.717 87.1255C120.691 86.6227 121.773 86.3606 122.999 86.3606C124.151 86.3606 125.051 86.7002 125.812 87.3522L125.843 87.3784L125.874 87.4034C125.954 87.467 126.03 87.5328 126.101 87.6015C125.643 87.6105 125.174 87.6215 124.693 87.6345H124.691C123.113 87.6784 121.516 87.8098 119.902 88.0279L119.895 88.029C119.202 88.1252 118.517 88.2461 117.84 88.3919ZM124.5 103.003C123.666 103.253 122.791 103.378 121.874 103.378C120.832 103.378 119.831 103.107 118.873 102.565C117.914 102.024 117.435 101.19 117.435 100.065C117.435 99.0225 117.768 98.2097 118.435 97.6261C119.144 97.0426 119.977 96.6049 120.936 96.3131C121.936 96.0214 122.957 95.8546 123.999 95.813C125.083 95.7296 125.979 95.6879 126.688 95.6879H129.001V97.6886C129.001 97.7268 129.001 97.7647 129 97.8024C128.984 98.7134 128.776 99.5092 128.376 100.19C128.001 100.898 127.48 101.482 126.813 101.94C126.146 102.399 125.375 102.753 124.5 103.003ZM126.885 97.8024H126.688C126.054 97.8024 125.217 97.8401 124.162 97.9212L124.123 97.9242L124.084 97.9257C123.218 97.9604 122.371 98.0982 121.54 98.3396C120.843 98.5532 120.275 98.8567 119.808 99.2345C119.686 99.3472 119.549 99.5415 119.549 100.065C119.549 100.321 119.601 100.435 119.627 100.48C119.652 100.523 119.715 100.613 119.913 100.725C120.573 101.098 121.217 101.264 121.874 101.264C122.596 101.264 123.266 101.166 123.892 100.978L123.905 100.974L123.919 100.97C124.601 100.775 125.159 100.512 125.615 100.198C126.004 99.9306 126.293 99.6044 126.507 99.2002L126.53 99.1583L126.554 99.1175C126.738 98.8044 126.87 98.3872 126.885 97.8024ZM179.391 111.12H166.533V109.687C166.339 109.806 166.14 109.922 165.936 110.034C164.986 110.581 163.941 111.014 162.812 111.344C161.649 111.697 160.445 111.87 159.207 111.87C156.719 111.87 154.399 111.455 152.279 110.587L152.26 110.58L152.241 110.571C150.163 109.674 148.345 108.435 146.81 106.851L146.787 106.828L146.765 106.804C145.278 105.172 144.14 103.266 143.343 101.11C142.538 98.9314 142.149 96.5748 142.149 94.0623C142.149 91.726 142.493 89.4823 143.191 87.342L143.196 87.329L143.2 87.3161C143.936 85.1541 144.96 83.2119 146.284 81.51L146.295 81.4957L146.306 81.4816C147.696 79.7562 149.381 78.3817 151.347 77.3715C153.394 76.2774 155.677 75.7543 158.144 75.7543C160.32 75.7543 162.378 76.1005 164.297 76.8159C164.815 76.9943 165.31 77.2061 165.783 77.4509V59.6233H179.391V111.12ZM167.898 81.8703H167.773C167.197 81.0961 166.534 80.4452 165.783 79.9175C165.119 79.4508 164.386 79.0805 163.583 78.8066C161.916 78.1814 160.103 77.8688 158.144 77.8688C155.977 77.8688 154.038 78.3273 152.329 79.2443C150.62 80.1196 149.161 81.3076 147.953 82.8081C146.786 84.3087 145.869 86.0385 145.202 87.9976C144.576 89.9149 144.264 91.9365 144.264 94.0623C144.264 96.3548 144.618 98.4598 145.327 100.377C146.035 102.295 147.036 103.962 148.328 105.379C149.662 106.755 151.246 107.838 153.08 108.63C154.914 109.38 156.956 109.756 159.207 109.756C160.249 109.756 161.249 109.61 162.208 109.318C163.208 109.026 164.105 108.651 164.896 108.193C165.51 107.855 166.055 107.495 166.533 107.113C166.705 106.976 166.868 106.835 167.022 106.692C167.648 106.108 168.148 105.546 168.523 105.004H168.648V109.005H177.276V61.7378H167.898V81.8703ZM165.107 89.6968L165.096 89.6847L165.085 89.6723C164.286 88.796 163.079 88.2363 161.145 88.2363C159.223 88.2363 157.98 88.7904 157.132 89.6848C156.269 90.6378 155.757 91.9461 155.757 93.8122C155.757 95.6783 156.269 96.9865 157.132 97.9396C157.98 98.834 159.222 99.3881 161.145 99.3881C163.079 99.3881 164.286 98.8285 165.085 97.9521L165.096 97.9398L165.107 97.9276C166.007 96.9712 166.533 95.6683 166.533 93.8122C166.533 91.9561 166.007 90.6532 165.107 89.6968ZM155.581 99.3768C154.288 97.9596 153.642 96.1047 153.642 93.8122C153.642 91.5197 154.288 89.6648 155.581 88.2476C156.914 86.8305 158.769 86.1219 161.145 86.1219C163.521 86.1219 165.355 86.8305 166.647 88.2476C167.981 89.6648 168.648 91.5197 168.648 93.8122C168.648 96.1047 167.981 97.9596 166.647 99.3768C165.355 100.794 163.521 101.503 161.145 101.503C158.769 101.503 156.914 100.794 155.581 99.3768ZM218.418 103.338L217.073 105.057C215.356 107.251 213.184 108.94 210.593 110.118C208.033 111.281 205.359 111.87 202.591 111.87C200.026 111.87 197.573 111.457 195.247 110.62L195.234 110.615C192.955 109.778 190.93 108.581 189.179 107.02L189.156 106.999L189.134 106.979C187.423 105.363 186.076 103.443 185.092 101.24C184.081 98.9768 183.595 96.4893 183.595 93.8122C183.595 91.1351 184.081 88.6476 185.092 86.3847C186.078 84.1771 187.431 82.2694 189.155 80.6885C190.909 79.0769 192.942 77.8513 195.234 77.0094L195.247 77.0047C197.573 76.1674 200.026 75.7543 202.591 75.7543C205.002 75.7543 207.247 76.172 209.293 77.0474C211.363 77.9155 213.129 79.1823 214.556 80.8478C216.012 82.4558 217.101 84.3748 217.847 86.5659C218.6 88.7777 218.96 91.201 218.96 93.8122V98.8653H212.318L218.418 103.338ZM216.846 96.7508V93.8122C216.846 91.3946 216.512 89.2063 215.846 87.2473C215.179 85.2882 214.22 83.6209 212.969 82.2454C211.761 80.8282 210.26 79.7445 208.468 78.9942C206.717 78.2439 204.758 77.8688 202.591 77.8688C200.256 77.8688 198.047 78.2439 195.963 78.9942C193.921 79.7445 192.128 80.8282 190.586 82.2454C189.086 83.6209 187.898 85.2882 187.022 87.2473C186.147 89.2063 185.709 91.3946 185.709 93.8122C185.709 96.2298 186.147 98.4181 187.022 100.377C187.898 102.336 189.086 104.024 190.586 105.442C192.128 106.817 193.921 107.88 195.963 108.63C198.047 109.38 200.256 109.756 202.591 109.756C205.05 109.756 207.426 109.235 209.718 108.193C211.337 107.457 212.759 106.503 213.983 105.33C214.492 104.842 214.967 104.317 215.408 103.753L208.843 98.9391C208.836 98.9486 208.829 98.9582 208.822 98.9677C208.034 100.039 207.104 100.925 206.029 101.628C204.987 102.295 203.695 102.628 202.153 102.628C200.319 102.628 198.777 102.107 197.526 101.065C196.813 100.447 196.242 99.7137 195.814 98.8653C195.491 98.2259 195.249 97.5211 195.088 96.7508H216.846ZM198.322 98.8653H206.116C205.733 99.2353 205.321 99.5634 204.882 99.8517C204.256 100.25 203.385 100.513 202.153 100.513C200.756 100.513 199.715 100.131 198.895 99.4533C198.689 99.273 198.498 99.0775 198.322 98.8653ZM198.34 87.984L198.335 87.9882C198.244 88.0726 198.156 88.1626 198.073 88.2589H204.779C204.664 88.0926 204.532 87.9321 204.381 87.7761C203.736 87.1057 202.909 86.7358 201.715 86.7358C200.897 86.7358 200.268 86.8668 199.785 87.0703C199.203 87.3154 198.728 87.6232 198.34 87.984ZM207.141 88.2589C206.882 87.5467 206.47 86.8968 205.904 86.3094C204.821 85.184 203.424 84.6213 201.715 84.6213C200.673 84.6213 199.756 84.788 198.964 85.1215C198.172 85.4549 197.485 85.8926 196.901 86.4345C196.359 86.9347 195.921 87.539 195.588 88.2476C195.586 88.2514 195.585 88.2552 195.583 88.2589C195.294 88.9226 195.129 89.6274 195.088 90.3734H207.467C207.471 90.2561 207.471 90.14 207.467 90.0252C207.451 89.399 207.342 88.8103 207.141 88.2589ZM262.909 68.9321C262.606 68.8877 262.28 68.8655 261.932 68.8655C260.432 68.8655 259.307 69.1989 258.556 69.8658C257.806 70.4911 257.431 71.804 257.431 73.8048V78.6191H264.371V86.1219H257.431V109.005H248.052V86.1219H241.863V78.6191H248.052V73.2421C248.052 71.5748 248.198 70.0117 248.49 68.5528C248.782 67.0523 249.344 65.7393 250.178 64.6139C251.012 63.4885 252.2 62.6131 253.742 61.9879C255.326 61.321 257.389 60.9875 259.932 60.9875C260.89 60.9875 261.828 61.0292 262.745 61.1126C263.662 61.1959 264.558 61.3418 265.434 61.5502L264.996 69.4907C264.454 69.2823 263.954 69.1364 263.496 69.053C263.31 69.0025 263.115 68.9622 262.909 68.9321ZM252.934 60.0337C254.869 59.2219 257.236 58.873 259.932 58.873C260.952 58.873 261.954 58.9174 262.937 59.0068C263.952 59.0991 264.948 59.2609 265.924 59.4933L267.642 59.9025L266.948 72.5067L264.237 71.4642C263.79 71.2922 263.419 71.1882 263.117 71.1334L263.027 71.117L262.939 71.093C262.698 71.0271 262.369 70.9799 261.932 70.9799C260.701 70.9799 260.172 71.2591 259.961 71.4462L259.936 71.4686L259.923 71.4795C259.906 71.5003 259.828 71.6095 259.745 71.9004C259.63 72.3025 259.545 72.9186 259.545 73.8048V76.5046H266.485V88.2363H259.545V111.12H245.938V88.2363H239.748V76.5046H245.938V73.2421C245.938 71.4535 246.094 69.7517 246.416 68.1424C246.763 66.3638 247.442 64.7548 248.479 63.3553C249.582 61.8666 251.106 60.7771 252.934 60.0337ZM278.217 77.0094L278.23 77.0047C280.556 76.1674 283.008 75.7543 285.574 75.7543C288.136 75.7543 290.571 76.1665 292.861 77.007C295.186 77.8449 297.224 79.068 298.945 80.6874C300.708 82.2656 302.084 84.1729 303.072 86.3847C304.083 88.6476 304.569 91.1351 304.569 93.8122C304.569 96.4893 304.083 98.9768 303.072 101.24C302.082 103.455 300.706 105.381 298.946 106.998L298.944 107C297.221 108.58 295.183 109.781 292.861 110.617C290.571 111.458 288.136 111.87 285.574 111.87C283.008 111.87 280.556 111.457 278.23 110.62L278.217 110.615C275.938 109.778 273.913 108.581 272.162 107.02L272.139 106.999L272.117 106.979C270.406 105.363 269.059 103.443 268.075 101.24C267.064 98.9768 266.578 96.4893 266.578 93.8122C266.578 91.1351 267.064 88.6476 268.075 86.3847C269.061 84.1763 270.415 82.268 272.14 80.6867L273.566 82.242L272.138 80.6885L272.14 80.6867C273.894 79.076 275.926 77.851 278.217 77.0094ZM292.139 108.63C294.223 107.88 296.015 106.817 297.516 105.442C299.058 104.024 300.267 102.336 301.142 100.377C302.017 98.4181 302.455 96.2298 302.455 93.8122C302.455 91.3946 302.017 89.2063 301.142 87.2473C300.267 85.2882 299.058 83.6209 297.516 82.2454C296.015 80.8282 294.223 79.7445 292.139 78.9942C290.096 78.2439 287.908 77.8688 285.574 77.8688C283.239 77.8688 281.03 78.2439 278.946 78.9942C276.904 79.7445 275.111 80.8282 273.569 82.2454C272.069 83.6209 270.881 85.2882 270.005 87.2473C269.13 89.2063 268.692 91.3946 268.692 93.8122C268.692 96.2298 269.13 98.4181 270.005 100.377C270.881 102.336 272.069 104.024 273.569 105.442C275.111 106.817 276.904 107.88 278.946 108.63C281.03 109.38 283.239 109.756 285.574 109.756C287.908 109.756 290.096 109.38 292.139 108.63ZM289.524 97.9398L289.536 97.9276C290.436 96.9712 290.962 95.6683 290.962 93.8122C290.962 91.9561 290.436 90.6532 289.536 89.6968L289.524 89.6847L289.513 89.6723C288.714 88.796 287.508 88.2363 285.574 88.2363C283.651 88.2363 282.408 88.7905 281.56 89.6849C280.697 90.638 280.185 91.9462 280.185 93.8122C280.185 95.6782 280.697 96.9864 281.56 97.9394C282.408 98.8339 283.651 99.3881 285.574 99.3881C287.508 99.3881 288.714 98.8285 289.513 97.9521L289.524 97.9398ZM280.009 88.2476C281.343 86.8305 283.198 86.1219 285.574 86.1219C287.949 86.1219 289.783 86.8305 291.076 88.2476C292.409 89.6648 293.076 91.5197 293.076 93.8122C293.076 96.1047 292.409 97.9596 291.076 99.3768C289.783 100.794 287.949 101.503 285.574 101.503C283.198 101.503 281.343 100.794 280.009 99.3768C278.717 97.9596 278.071 96.1047 278.071 93.8122C278.071 91.5197 278.717 89.6648 280.009 88.2476ZM307.74 76.5046H321.348V77.829C321.474 77.7361 321.602 77.6462 321.731 77.5593C323.536 76.308 325.709 75.7543 328.111 75.7543C328.707 75.7543 329.303 75.7772 329.899 75.8231C330.556 75.8736 331.19 75.9766 331.794 76.1414L333.352 76.5664V89.6232L330.607 88.7653C330.055 88.593 329.512 88.4747 328.974 88.4076L328.898 88.398L328.822 88.3829C328.348 88.2879 327.821 88.2363 327.236 88.2363C325.603 88.2363 324.542 88.47 323.899 88.7784C323.195 89.1167 322.695 89.5644 322.337 90.1215C321.987 90.6915 321.714 91.4527 321.579 92.4661C321.427 93.6085 321.348 94.8891 321.348 96.3131V111.12H307.74V76.5046ZM320.546 88.9979C321.13 88.0809 321.942 87.3723 322.984 86.8721C324.026 86.372 325.444 86.1219 327.236 86.1219C327.902 86.1219 328.531 86.1771 329.123 86.2875C329.161 86.2945 329.199 86.3019 329.237 86.3094C329.904 86.3928 330.571 86.5387 331.237 86.7471V78.1814C330.779 78.0564 330.279 77.973 329.737 77.9313C329.195 77.8896 328.653 77.8688 328.111 77.8688C326.027 77.8688 324.297 78.3481 322.922 79.3068C322.367 79.6771 321.842 80.1255 321.348 80.652C320.618 81.4295 319.955 82.3775 319.358 83.4959H319.233V78.6191H309.855V109.005H319.233V96.3131C319.233 94.8126 319.316 93.4371 319.483 92.1866C319.65 90.9361 320.004 89.8732 320.546 88.9979ZM375.074 113.945C374.449 115.57 373.844 117.008 373.261 118.259C372.677 119.509 371.927 120.551 371.01 121.385C370.135 122.26 369.009 122.906 367.634 123.323C366.258 123.782 364.445 124.011 362.194 124.011C359.777 124.011 357.443 123.636 355.192 122.885L356.442 115.195C357.11 115.49 357.788 115.715 358.475 115.871C359.244 116.046 360.026 116.133 360.819 116.133C361.861 116.133 362.715 116.008 363.382 115.758C364.049 115.549 364.591 115.216 365.008 114.757C365.466 114.341 365.841 113.82 366.133 113.194C366.425 112.569 366.738 111.84 367.071 111.006L367.759 109.255L354.441 78.6191H364.57L372.386 98.689H372.511L379.201 78.6191H388.829L375.074 113.945ZM372.299 92.6385L377.677 76.5046H391.922L377.048 114.704C377.047 114.706 377.046 114.709 377.044 114.712M377.044 114.712C376.407 116.369 375.785 117.851 375.177 119.153C374.496 120.613 373.598 121.88 372.469 122.916C371.323 124.049 369.9 124.842 368.274 125.338C366.603 125.89 364.548 126.125 362.194 126.125C359.554 126.125 356.994 125.715 354.523 124.891L352.816 124.322L354.794 112.157L357.296 113.261C358.453 113.771 359.622 114.019 360.819 114.019C361.714 114.019 362.293 113.908 362.64 113.778L362.695 113.757L362.752 113.74C363.106 113.629 363.31 113.481 363.443 113.335L363.511 113.261L363.585 113.193C363.814 112.985 364.03 112.7 364.217 112.3C364.487 111.721 364.783 111.032 365.105 110.228C365.106 110.226 365.107 110.223 365.108 110.221L365.471 109.296L351.217 76.5046H366.016L372.299 92.6385M396.506 80.6885C396.506 80.6885 400.194 78.0094 402.597 77.0047C405 75.9999 407.376 75.7543 409.941 75.7543C412.503 75.7543 414.937 76.1664 417.228 77.0067C419.553 77.8446 421.591 79.0676 423.312 80.6872C425.076 82.2654 426.452 84.1728 427.44 86.3847C428.451 88.6476 428.937 91.1351 428.937 93.8122C428.937 96.4893 428.451 98.9768 427.44 101.24C426.45 103.455 425.073 105.381 423.314 106.998L423.312 107C421.588 108.58 419.55 109.781 417.228 110.618C414.938 111.458 412.503 111.87 409.941 111.87C407.376 111.87 404.923 111.457 402.597 110.62L402.584 110.615C400.306 109.778 398.28 108.581 396.529 107.02L396.507 106.999L396.485 106.979C394.774 105.363 393.427 103.443 392.442 101.24C391.431 98.9768 390.945 96.4893 390.945 93.8122C390.945 91.1351 391.431 88.6476 392.442 86.3847C393.429 84.1771 394.782 82.2694 396.506 80.6885L396.508 80.6867L397.937 82.2454C399.479 80.8282 401.271 79.7445 403.314 78.9942C405.398 78.2439 407.607 77.8688 409.941 77.8688C412.275 77.8688 414.464 78.2439 416.506 78.9942C418.59 79.7445 420.382 80.8282 421.883 82.2454C423.425 83.6209 424.634 85.2882 425.509 87.2473C426.385 89.2063 426.822 91.3946 426.822 93.8122C426.822 96.2298 426.385 98.4181 425.509 100.377C424.634 102.336 423.425 104.024 421.883 105.442C420.382 106.817 418.59 107.88 416.506 108.63C414.464 109.38 412.275 109.756 409.941 109.756C407.607 109.756 405.398 109.38 403.314 108.63C401.271 107.88 399.479 106.817 397.937 105.442C396.436 104.024 395.248 102.336 394.373 100.377C393.497 98.4181 393.06 96.2298 393.06 93.8122C393.06 91.3946 393.497 89.2063 394.373 87.2473C395.248 85.2882 396.436 83.6209 397.937 82.2454M413.892 97.9398L413.903 97.9276C414.803 96.9712 415.329 95.6683 415.329 93.8122C415.329 91.9561 414.803 90.6532 413.903 89.6968L413.892 89.6847L413.881 89.6723C413.082 88.796 411.875 88.2363 409.941 88.2363C408.019 88.2363 406.776 88.7902 405.928 89.6842C405.065 90.6373 404.553 91.9458 404.553 93.8122C404.553 95.6786 405.065 96.9869 405.928 97.94C406.776 98.834 408.019 99.3881 409.941 99.3881C411.875 99.3881 413.082 98.8285 413.881 97.9521L413.892 97.9398ZM404.376 88.2476C405.71 86.8305 407.565 86.1219 409.941 86.1219C412.317 86.1219 414.151 86.8305 415.443 88.2476C416.777 89.6648 417.444 91.5197 417.444 93.8122C417.444 96.1047 416.777 97.9596 415.443 99.3768C414.151 100.794 412.317 101.503 409.941 101.503C407.565 101.503 405.71 100.794 404.376 99.3768C403.084 97.9596 402.438 96.1047 402.438 93.8122C402.438 91.5197 403.084 89.6648 404.376 88.2476ZM465.597 111.12H452.365V109.937C452.333 109.957 452.301 109.977 452.268 109.997C451.346 110.56 450.324 111.004 449.218 111.341C448.037 111.7 446.785 111.87 445.476 111.87C442.913 111.87 440.636 111.491 438.759 110.605L438.726 110.589L438.694 110.573C436.929 109.665 435.494 108.4 434.446 106.775L434.433 106.755L434.42 106.734C433.464 105.174 432.84 103.386 432.511 101.413L432.507 101.388L432.504 101.364C432.238 99.5005 432.108 97.5028 432.108 95.3753V76.5046H445.715V93.4996C445.715 94.3258 445.734 95.1947 445.773 96.1066C445.841 96.8171 445.984 97.4574 446.192 98.0354C446.391 98.4902 446.647 98.823 446.954 99.0764C447.137 99.2033 447.566 99.3881 448.477 99.3881C449.432 99.3881 450.014 99.2261 450.354 99.048C450.789 98.7741 451.06 98.4684 451.235 98.1373L451.245 98.1185L451.256 98.0998C451.535 97.5965 451.729 97.0173 451.822 96.3401C451.933 95.525 451.99 94.6621 451.99 93.7497V76.5046H465.597V111.12ZM451.416 100.877C450.666 101.294 449.686 101.503 448.477 101.503C447.268 101.503 446.331 101.252 445.664 100.752C445.039 100.252 444.559 99.606 444.226 98.8141C443.934 98.0221 443.746 97.1676 443.663 96.2506C443.621 95.2919 443.6 94.3749 443.6 93.4996V78.6191H434.222V95.3753C434.222 97.4177 434.347 99.3143 434.597 101.065C434.889 102.816 435.431 104.337 436.223 105.629C437.056 106.921 438.203 107.942 439.661 108.693C441.162 109.401 443.1 109.756 445.476 109.756C446.602 109.756 447.644 109.61 448.602 109.318C449.561 109.026 450.415 108.651 451.166 108.193C451.609 107.922 452.009 107.629 452.365 107.314C452.611 107.096 452.837 106.868 453.041 106.629C453.583 106.046 454.021 105.462 454.354 104.879H454.48V109.005H463.483V78.6191H454.104V93.7497C454.104 94.7501 454.042 95.7087 453.917 96.6258C453.792 97.5428 453.521 98.3764 453.104 99.1267C452.729 99.8353 452.166 100.419 451.416 100.877Z" fill="#F2F2F3"/>
<path d="M54.5648 147.543H48.375V140.04H54.5648V134.663C54.5648 132.995 54.7107 131.432 55.0025 129.974C55.2942 128.473 55.8569 127.16 56.6906 126.035C57.5242 124.909 58.7122 124.034 60.2544 123.409C61.8383 122.742 63.9016 122.408 66.4442 122.408C67.4029 122.408 68.3407 122.45 69.2577 122.533C70.1748 122.617 71.0709 122.762 71.9462 122.971L71.5086 130.911C70.9667 130.703 70.4665 130.557 70.008 130.474C69.5495 130.349 69.0285 130.286 68.4449 130.286C66.9444 130.286 65.819 130.62 65.0687 131.286C64.3184 131.912 63.9433 133.225 63.9433 135.225V140.04H70.8834V147.543H63.9433V170.426H54.5648V147.543Z" fill="#F2F2F3"/>
<path d="M73.9541 155.233C73.9541 152.815 74.3918 150.627 75.2671 148.668C76.1424 146.709 77.3304 145.042 78.8309 143.666C80.3732 142.249 82.1655 141.165 84.2079 140.415C86.292 139.665 88.5012 139.289 90.8354 139.289C93.1696 139.289 95.3579 139.665 97.4003 140.415C99.4844 141.165 101.277 142.249 102.778 143.666C104.32 145.042 105.529 146.709 106.404 148.668C107.279 150.627 107.717 152.815 107.717 155.233C107.717 157.65 107.279 159.839 106.404 161.798C105.529 163.757 104.32 165.445 102.778 166.862C101.277 168.238 99.4844 169.301 97.4003 170.051C95.3579 170.801 93.1696 171.176 90.8354 171.176C88.5012 171.176 86.292 170.801 84.2079 170.051C82.1655 169.301 80.3732 168.238 78.8309 166.862C77.3304 165.445 76.1424 163.757 75.2671 161.798C74.3918 159.839 73.9541 157.65 73.9541 155.233ZM83.3326 155.233C83.3326 157.525 83.9787 159.38 85.2708 160.797C86.6046 162.215 88.4595 162.923 90.8354 162.923C93.2113 162.923 95.0453 162.215 96.3374 160.797C97.6712 159.38 98.3382 157.525 98.3382 155.233C98.3382 152.94 97.6712 151.086 96.3374 149.668C95.0453 148.251 93.2113 147.543 90.8354 147.543C88.4595 147.543 86.6046 148.251 85.2708 149.668C83.9787 151.086 83.3326 152.94 83.3326 155.233Z" fill="#F2F2F3"/>
<path d="M113.866 140.04H123.245V144.917H123.37C124.37 143.041 125.558 141.645 126.933 140.727C128.309 139.769 130.039 139.289 132.123 139.289C132.665 139.289 133.207 139.31 133.748 139.352C134.29 139.394 134.791 139.477 135.249 139.602V148.168C134.582 147.959 133.915 147.813 133.248 147.73C132.623 147.605 131.956 147.543 131.248 147.543C129.455 147.543 128.038 147.793 126.996 148.293C125.954 148.793 125.141 149.502 124.558 150.419C124.016 151.294 123.661 152.357 123.495 153.607C123.328 154.858 123.245 156.233 123.245 157.734V170.426H113.866V140.04Z" fill="#F2F2F3"/>
<path d="M179.773 147.543H171.52V157.671C171.52 158.505 171.562 159.276 171.645 159.985C171.729 160.652 171.916 161.235 172.208 161.735C172.5 162.235 172.937 162.631 173.521 162.923C174.146 163.173 174.959 163.298 175.959 163.298C176.46 163.298 177.106 163.257 177.898 163.173C178.731 163.048 179.357 162.798 179.773 162.423V170.238C178.731 170.614 177.648 170.864 176.522 170.989C175.397 171.114 174.292 171.176 173.208 171.176C171.625 171.176 170.166 171.01 168.832 170.676C167.498 170.343 166.331 169.822 165.331 169.113C164.33 168.363 163.538 167.404 162.955 166.237C162.413 165.07 162.142 163.653 162.142 161.985V147.543H156.14V140.04H162.142V131.036H171.52V140.04H179.773V147.543Z" fill="#F2F2F3"/>
<path d="M194.543 123.158V144.166H194.668C194.876 143.583 195.231 142.999 195.731 142.416C196.231 141.832 196.836 141.311 197.544 140.853C198.253 140.394 199.086 140.019 200.045 139.727C201.004 139.435 202.046 139.289 203.171 139.289C205.547 139.289 207.464 139.665 208.923 140.415C210.382 141.123 211.508 142.124 212.3 143.416C213.133 144.708 213.696 146.23 213.988 147.98C214.279 149.731 214.425 151.627 214.425 153.67V170.426H205.047V155.545C205.047 154.67 205.005 153.774 204.922 152.857C204.88 151.898 204.693 151.023 204.359 150.231C204.067 149.439 203.588 148.793 202.921 148.293C202.296 147.793 201.379 147.543 200.17 147.543C198.961 147.543 197.982 147.772 197.232 148.23C196.481 148.647 195.898 149.231 195.481 149.981C195.106 150.69 194.856 151.502 194.731 152.419C194.606 153.336 194.543 154.295 194.543 155.295V170.426H185.165V123.158H194.543Z" fill="#F2F2F3"/>
<path d="M250.452 165.174C248.952 167.091 247.055 168.571 244.763 169.613C242.47 170.655 240.094 171.176 237.635 171.176C235.301 171.176 233.092 170.801 231.008 170.051C228.965 169.301 227.173 168.238 225.631 166.862C224.13 165.445 222.942 163.757 222.067 161.798C221.192 159.839 220.754 157.65 220.754 155.233C220.754 152.815 221.192 150.627 222.067 148.668C222.942 146.709 224.13 145.042 225.631 143.666C227.173 142.249 228.965 141.165 231.008 140.415C233.092 139.665 235.301 139.289 237.635 139.289C239.803 139.289 241.762 139.665 243.512 140.415C245.305 141.165 246.805 142.249 248.014 143.666C249.264 145.042 250.223 146.709 250.89 148.668C251.557 150.627 251.89 152.815 251.89 155.233V158.171H230.132C230.508 159.964 231.32 161.402 232.571 162.486C233.821 163.528 235.363 164.049 237.198 164.049C238.74 164.049 240.032 163.715 241.074 163.048C242.158 162.34 243.096 161.444 243.887 160.36L250.452 165.174ZM242.512 151.794C242.554 150.21 242.033 148.856 240.949 147.73C239.865 146.605 238.469 146.042 236.76 146.042C235.718 146.042 234.801 146.209 234.009 146.542C233.217 146.876 232.529 147.313 231.946 147.855C231.404 148.355 230.966 148.96 230.633 149.668C230.341 150.335 230.174 151.044 230.132 151.794H242.512Z" fill="#F2F2F3"/>
<path d="M277.345 140.04H286.348V144.166H286.473C286.765 143.583 287.182 142.999 287.724 142.416C288.265 141.832 288.912 141.311 289.662 140.853C290.412 140.394 291.267 140.019 292.225 139.727C293.184 139.435 294.226 139.289 295.351 139.289C297.727 139.289 299.645 139.665 301.104 140.415C302.562 141.123 303.688 142.124 304.48 143.416C305.313 144.708 305.876 146.23 306.168 147.98C306.46 149.731 306.606 151.627 306.606 153.67V170.426H297.227V155.545C297.227 154.67 297.185 153.774 297.102 152.857C297.06 151.898 296.873 151.023 296.539 150.231C296.248 149.439 295.768 148.793 295.101 148.293C294.476 147.793 293.559 147.543 292.35 147.543C291.141 147.543 290.162 147.772 289.412 148.23C288.661 148.647 288.078 149.231 287.661 149.981C287.286 150.69 287.036 151.502 286.911 152.419C286.786 153.336 286.723 154.295 286.723 155.295V170.426H277.345V140.04Z" fill="#F2F2F3"/>
<path d="M332.941 166.612H332.816C331.774 168.238 330.378 169.405 328.627 170.113C326.918 170.822 325.105 171.176 323.188 171.176C321.771 171.176 320.395 170.968 319.061 170.551C317.769 170.176 316.623 169.592 315.623 168.8C314.622 168.008 313.83 167.029 313.247 165.862C312.663 164.695 312.371 163.34 312.371 161.798C312.371 160.047 312.684 158.567 313.309 157.359C313.976 156.15 314.851 155.15 315.935 154.358C317.061 153.566 318.332 152.961 319.749 152.544C321.166 152.086 322.625 151.752 324.126 151.544C325.668 151.336 327.189 151.211 328.69 151.169C330.232 151.127 331.649 151.106 332.941 151.106C332.941 149.439 332.337 148.126 331.128 147.167C329.961 146.167 328.565 145.667 326.939 145.667C325.397 145.667 323.98 146 322.688 146.667C321.437 147.292 320.312 148.168 319.311 149.293L314.31 144.166C316.06 142.541 318.103 141.332 320.437 140.54C322.771 139.706 325.189 139.289 327.69 139.289C330.441 139.289 332.691 139.644 334.442 140.352C336.234 141.019 337.652 142.02 338.694 143.353C339.777 144.687 340.528 146.334 340.944 148.293C341.361 150.21 341.57 152.44 341.57 154.983V170.426H332.941V166.612ZM330.628 157.109C329.92 157.109 329.023 157.15 327.94 157.234C326.898 157.275 325.876 157.442 324.876 157.734C323.917 158.026 323.084 158.463 322.375 159.047C321.708 159.63 321.375 160.443 321.375 161.485C321.375 162.611 321.854 163.444 322.813 163.986C323.771 164.528 324.772 164.799 325.814 164.799C326.731 164.799 327.606 164.674 328.44 164.424C329.315 164.174 330.086 163.819 330.753 163.361C331.42 162.902 331.941 162.319 332.316 161.61C332.733 160.902 332.941 160.068 332.941 159.109V157.109H330.628Z" fill="#F2F2F3"/>
<path d="M368.774 147.543H360.521V157.671C360.521 158.505 360.563 159.276 360.646 159.985C360.729 160.652 360.917 161.235 361.209 161.735C361.501 162.235 361.938 162.631 362.522 162.923C363.147 163.173 363.96 163.298 364.96 163.298C365.46 163.298 366.106 163.257 366.898 163.173C367.732 163.048 368.357 162.798 368.774 162.423V170.238C367.732 170.614 366.648 170.864 365.523 170.989C364.398 171.114 363.293 171.176 362.209 171.176C360.625 171.176 359.166 171.01 357.833 170.676C356.499 170.343 355.332 169.822 354.331 169.113C353.331 168.363 352.539 167.404 351.955 166.237C351.414 165.07 351.143 163.653 351.143 161.985V147.543H345.14V140.04H351.143V131.036H360.521V140.04H368.774V147.543Z" fill="#F2F2F3"/>
<path d="M403.426 170.426H394.423V166.299H394.298C393.964 166.883 393.527 167.467 392.985 168.05C392.485 168.634 391.859 169.155 391.109 169.613C390.359 170.072 389.504 170.447 388.546 170.739C387.587 171.03 386.545 171.176 385.419 171.176C383.044 171.176 381.105 170.822 379.605 170.113C378.146 169.363 377 168.342 376.166 167.05C375.374 165.758 374.832 164.236 374.54 162.486C374.29 160.735 374.165 158.838 374.165 156.796V140.04H383.544V154.92C383.544 155.796 383.565 156.713 383.606 157.671C383.69 158.588 383.877 159.443 384.169 160.235C384.502 161.027 384.982 161.673 385.607 162.173C386.274 162.673 387.212 162.923 388.421 162.923C389.629 162.923 390.609 162.715 391.359 162.298C392.109 161.839 392.672 161.256 393.047 160.547C393.464 159.797 393.735 158.963 393.86 158.046C393.985 157.129 394.048 156.171 394.048 155.17V140.04H403.426V170.426Z" fill="#F2F2F3"/>
<path d="M410.693 140.04H420.071V144.917H420.196C421.196 143.041 422.384 141.645 423.76 140.727C425.135 139.769 426.865 139.289 428.949 139.289C429.491 139.289 430.033 139.31 430.575 139.352C431.117 139.394 431.617 139.477 432.075 139.602V148.168C431.409 147.959 430.742 147.813 430.075 147.73C429.449 147.605 428.783 147.543 428.074 147.543C426.282 147.543 424.864 147.793 423.822 148.293C422.78 148.793 421.968 149.502 421.384 150.419C420.842 151.294 420.488 152.357 420.321 153.607C420.154 154.858 420.071 156.233 420.071 157.734V170.426H410.693V140.04Z" fill="#F2F2F3"/>
<path d="M464.44 165.174C462.94 167.091 461.043 168.571 458.751 169.613C456.458 170.655 454.082 171.176 451.623 171.176C449.289 171.176 447.08 170.801 444.996 170.051C442.953 169.301 441.161 168.238 439.619 166.862C438.118 165.445 436.93 163.757 436.055 161.798C435.18 159.839 434.742 157.65 434.742 155.233C434.742 152.815 435.18 150.627 436.055 148.668C436.93 146.709 438.118 145.042 439.619 143.666C441.161 142.249 442.953 141.165 444.996 140.415C447.08 139.665 449.289 139.289 451.623 139.289C453.791 139.289 455.75 139.665 457.5 140.415C459.293 141.165 460.793 142.249 462.002 143.666C463.253 145.042 464.211 146.709 464.878 148.668C465.545 150.627 465.879 152.815 465.879 155.233V158.171H444.12C444.496 159.964 445.308 161.402 446.559 162.486C447.809 163.528 449.352 164.049 451.186 164.049C452.728 164.049 454.02 163.715 455.062 163.048C456.146 162.34 457.084 161.444 457.876 160.36L464.44 165.174ZM456.5 151.794C456.542 150.21 456.021 148.856 454.937 147.73C453.853 146.605 452.457 146.042 450.748 146.042C449.706 146.042 448.789 146.209 447.997 146.542C447.205 146.876 446.517 147.313 445.934 147.855C445.392 148.355 444.954 148.96 444.621 149.668C444.329 150.335 444.162 151.044 444.12 151.794H456.5Z" fill="#F2F2F3"/>
<path fill-rule="evenodd" clip-rule="evenodd" d="M208.72 314L272.462 203.424H144.978L208.72 314ZM208.72 298.041L258.668 211.394H158.773L208.72 298.041Z" fill="#F2F2F3"/>
<path d="M115.544 203.424L179.285 314H51.8018L115.544 203.424Z" fill="#F2F2F3"/>
<path d="M306.023 203.424L266.154 272.441H274.863L274.873 272.425H337.173L337.183 272.441H345.892L306.023 203.424Z" fill="#F2F2F3"/>
<path d="M261.18 281.199H270.379L256.062 306.03H355.984L341.667 281.199H350.866L369.778 314H242.268L261.18 281.199Z" fill="#F2F2F3"/>
<path d="M263.909 281.199H348.109L360.79 306.56H251.229L263.909 281.199Z" fill="#F2F2F3"/>
<path fill-rule="evenodd" clip-rule="evenodd" d="M405.625 306.023L401.026 314L396.426 306.023L341.865 211.394L337.27 203.424H346.47H455.582H464.781L460.186 211.394L405.625 306.023ZM432.283 243.834L401.026 298.045L369.769 243.834H432.283ZM436.587 236.369L450.987 211.394H351.065L365.465 236.369H436.587Z" fill="#F2F2F3"/>
</svg>
