<svg width="33" height="33" viewBox="0 0 33 33" fill="none" xmlns="http://www.w3.org/2000/svg">
<path d="M10.8138 16.1645C10.8138 13.1888 13.2255 10.7759 16.2011 10.7759C19.1768 10.7759 21.5897 13.1888 21.5897 16.1645C21.5897 19.1402 19.1768 21.5531 16.2011 21.5531C13.2255 21.5531 10.8138 19.1402 10.8138 16.1645ZM7.90083 16.1645C7.90083 20.7488 11.6168 24.4648 16.2011 24.4648C20.7854 24.4648 24.5015 20.7488 24.5015 16.1645C24.5015 11.5802 20.7854 7.86421 16.2011 7.86421C11.6168 7.86421 7.90083 11.5802 7.90083 16.1645ZM22.8902 7.53517C22.8902 8.60584 23.7585 9.47544 24.8305 9.47544C25.9012 9.47544 26.7708 8.60584 26.7708 7.53517C26.7708 6.4645 25.9025 5.59621 24.8305 5.59621C23.7585 5.59621 22.8902 6.4645 22.8902 7.53517ZM9.67005 29.322C8.09407 29.2502 7.23754 28.9878 6.66825 28.7658C5.91356 28.472 5.37561 28.1221 4.80894 27.5567C4.24357 26.9914 3.89234 26.4534 3.59987 25.6987C3.3779 25.1294 3.11545 24.2729 3.04364 22.6969C2.9653 20.993 2.94963 20.4812 2.94963 16.1645C2.94963 11.8479 2.9666 11.3374 3.04364 9.63212C3.11545 8.05615 3.3792 7.20092 3.59987 6.63033C3.89365 5.87563 4.24357 5.33769 4.80894 4.77101C5.37431 4.20565 5.91225 3.85442 6.66825 3.56194C7.23754 3.33997 8.09407 3.07753 9.67005 3.00571C11.374 2.92737 11.8858 2.9117 16.2011 2.9117C20.5178 2.9117 21.0283 2.92868 22.7335 3.00571C24.3095 3.07753 25.1647 3.34128 25.7353 3.56194C26.49 3.85442 27.028 4.20565 27.5946 4.77101C28.16 5.33638 28.5099 5.87563 28.8037 6.63033C29.0257 7.19961 29.2881 8.05615 29.3599 9.63212C29.4383 11.3374 29.454 11.8479 29.454 16.1645C29.454 20.4798 29.4383 20.9917 29.3599 22.6969C29.2881 24.2729 29.0244 25.1294 28.8037 25.6987C28.5099 26.4534 28.16 26.9914 27.5946 27.5567C27.0293 28.1221 26.49 28.472 25.7353 28.7658C25.1661 28.9878 24.3095 29.2502 22.7335 29.322C21.0296 29.4004 20.5178 29.416 16.2011 29.416C11.8858 29.416 11.374 29.4004 9.67005 29.322ZM9.53687 0.0979272C7.81596 0.176269 6.64083 0.44916 5.61325 0.848703C4.55041 1.2613 3.64948 1.81492 2.74986 2.71324C1.85154 3.61156 1.29792 4.51249 0.885324 5.57663C0.485781 6.60421 0.21289 7.77934 0.134548 9.50025C0.0549008 11.2238 0.0366211 11.7748 0.0366211 16.1645C0.0366211 20.5543 0.0549008 21.1053 0.134548 22.8288C0.21289 24.5497 0.485781 25.7248 0.885324 26.7524C1.29792 27.8152 1.85023 28.7175 2.74986 29.6158C3.64818 30.5141 4.54911 31.0664 5.61325 31.4803C6.64214 31.8799 7.81596 32.1528 9.53687 32.2311C11.2617 32.3095 11.8114 32.329 16.2011 32.329C20.5922 32.329 21.1419 32.3108 22.8654 32.2311C24.5863 32.1528 25.7614 31.8799 26.789 31.4803C27.8519 31.0664 28.7528 30.5141 29.6524 29.6158C30.5507 28.7175 31.1031 27.8152 31.517 26.7524C31.9165 25.7248 32.1907 24.5497 32.2677 22.8288C32.3461 21.104 32.3644 20.5543 32.3644 16.1645C32.3644 11.7748 32.3461 11.2238 32.2677 9.50025C32.1894 7.77934 31.9165 6.60421 31.517 5.57663C31.1031 4.51379 30.5507 3.61286 29.6524 2.71324C28.7541 1.81492 27.8519 1.2613 26.7903 0.848703C25.7614 0.44916 24.5863 0.174963 22.8667 0.0979272C21.1432 0.0195854 20.5922 0 16.2024 0C11.8114 0 11.2617 0.0182797 9.53687 0.0979272Z" fill="#F2F2F3"/>
</svg>
