<svg width="39" height="33" viewBox="0 0 39 33" fill="none" xmlns="http://www.w3.org/2000/svg">
<path d="M7.39257 0.493652V32.8227H0V0.493652H7.39257ZM25.8418 0.493652C25.8418 7.27305 23.2934 13.595 18.7342 18.3845L18.2866 18.842L28.4981 32.8227H19.3733L8.2764 17.628L11.1404 15.4749C15.7414 12.0157 18.4412 6.78165 18.6054 1.04971L18.6134 0.493652H25.8418ZM34.6124 24.7404C35.6799 24.7404 36.7036 25.1662 37.4583 25.9241C38.2131 26.6819 38.6371 27.7098 38.6371 28.7816C38.6371 29.8533 38.2131 30.8812 37.4583 31.6391C36.7036 32.3969 35.6799 32.8227 34.6124 32.8227C33.545 32.8227 32.5213 32.3969 31.7665 31.6391C31.0118 30.8812 30.5877 29.8533 30.5877 28.7816C30.5877 27.7098 31.0118 26.6819 31.7665 25.9241C32.5213 25.1662 33.545 24.7404 34.6124 24.7404Z" fill="#F2F2F3"/>
</svg>
