<svg width="118" height="34" viewBox="0 0 118 34" fill="none" xmlns="http://www.w3.org/2000/svg">
<path fill-rule="evenodd" clip-rule="evenodd" d="M13.9191 15.6417C13.9191 19.2092 7.45954 25.7924 7.45954 25.7924C7.45954 25.7924 1 19.2092 1 15.6417C1 12.0742 3.89203 9.18213 7.45954 9.18213C11.027 9.18213 13.9191 12.0742 13.9191 15.6417ZM7.45954 18.41C8.98847 18.41 10.2279 17.1706 10.2279 15.6417C10.2279 14.1127 8.98847 12.8733 7.45954 12.8733C5.93061 12.8733 4.69116 14.1127 4.69116 15.6417C4.69116 17.1706 5.93061 18.41 7.45954 18.41Z" stroke="white" stroke-width="1.84558" stroke-linecap="round"/>
<path d="M31.3992 21.3988C31.8195 22.0292 32.3529 22.498 32.9995 22.8051C33.6623 23.0961 34.3412 23.2415 35.0362 23.2415C35.4242 23.2415 35.8202 23.185 36.2243 23.0718C36.6285 22.9425 36.9922 22.7566 37.3154 22.5141C37.6549 22.2717 37.9297 21.9726 38.1398 21.617C38.35 21.2614 38.455 20.8492 38.455 20.3804C38.455 19.7177 38.2449 19.2166 37.8246 18.8771C37.4044 18.5215 36.879 18.2305 36.2486 18.0042C35.6343 17.7618 34.9554 17.5355 34.2119 17.3253C33.4845 17.099 32.8055 16.7919 32.1751 16.4039C31.5609 16.016 31.0436 15.4987 30.6233 14.8522C30.2031 14.1894 29.9929 13.3004 29.9929 12.185C29.9929 11.6839 30.098 11.1505 30.3081 10.5847C30.5344 10.019 30.882 9.5017 31.3507 9.03292C31.8195 8.56415 32.4176 8.17621 33.145 7.86908C33.8886 7.54579 34.7776 7.38414 35.8121 7.38414C36.7497 7.38414 37.6468 7.51346 38.5035 7.77209C39.3603 8.03073 40.1119 8.55607 40.7585 9.34813L38.8672 11.0697C38.5763 10.617 38.1641 10.2533 37.6307 9.97855C37.0972 9.70375 36.4911 9.56635 35.8121 9.56635C35.1656 9.56635 34.6241 9.65526 34.1876 9.83307C33.7673 9.99471 33.4279 10.2129 33.1692 10.4877C32.9106 10.7464 32.7247 11.0292 32.6116 11.3364C32.5146 11.6435 32.4661 11.9264 32.4661 12.185C32.4661 12.9124 32.6762 13.4701 33.0965 13.858C33.5168 14.246 34.034 14.5612 34.6483 14.8037C35.2787 15.0461 35.9576 15.2643 36.685 15.4583C37.4286 15.6523 38.1075 15.9271 38.7218 16.2827C39.3522 16.6222 39.8775 17.0909 40.2978 17.689C40.7181 18.2709 40.9282 19.0792 40.9282 20.1137C40.9282 20.9381 40.7666 21.6817 40.4433 22.3444C40.1362 23.0072 39.7159 23.5648 39.1824 24.0174C38.649 24.47 38.0186 24.8176 37.2912 25.06C36.5638 25.3025 35.7879 25.4237 34.9635 25.4237C33.8643 25.4237 32.8217 25.2298 31.8357 24.8418C30.8496 24.4539 30.0657 23.8558 29.4837 23.0476L31.3992 21.3988ZM42.6658 13.4943H45.1148L47.7092 22.0777H47.7577L50.4975 13.4943H52.801L55.7106 22.0777H55.7591L58.2323 13.4943H60.5357L56.826 24.9873H54.6195L51.5887 16.4039H51.5402L48.8003 24.9873H46.4483L42.6658 13.4943ZM64.3373 20.041C64.3373 20.5421 64.4424 21.0028 64.6525 21.423C64.8789 21.8271 65.1698 22.1747 65.5254 22.4656C65.8811 22.7566 66.2932 22.9829 66.762 23.1445C67.2308 23.3062 67.7157 23.387 68.2168 23.387C68.8957 23.387 69.4857 23.2335 69.9868 22.9263C70.4879 22.603 70.9486 22.1828 71.3689 21.6655L73.0177 22.9263C71.8053 24.4943 70.1081 25.2783 67.9259 25.2783C67.0207 25.2783 66.1963 25.1247 65.4527 24.8176C64.7253 24.5105 64.103 24.0902 63.5857 23.5567C63.0846 23.0072 62.6966 22.3687 62.4218 21.6412C62.147 20.8977 62.0097 20.0975 62.0097 19.2408C62.0097 18.3841 62.1551 17.592 62.4461 16.8646C62.7532 16.1211 63.1654 15.4826 63.6827 14.9491C64.2161 14.3995 64.8465 13.9712 65.5739 13.6641C66.3013 13.3569 67.0934 13.2034 67.9501 13.2034C68.9685 13.2034 69.8252 13.3812 70.5203 13.7368C71.2315 14.0924 71.8134 14.5612 72.266 15.1431C72.7186 15.7089 73.0419 16.3555 73.2359 17.0829C73.446 17.7941 73.5511 18.5215 73.5511 19.2651V20.041H64.3373ZM71.2234 18.2952C71.2073 17.8103 71.1264 17.3657 70.981 16.9616C70.8516 16.5575 70.6496 16.21 70.3748 15.919C70.1 15.6119 69.7525 15.3775 69.3322 15.2159C68.9281 15.038 68.4512 14.9491 67.9016 14.9491C67.3682 14.9491 66.8752 15.0542 66.4226 15.2643C65.9861 15.4583 65.6143 15.717 65.3072 16.0402C65.0001 16.3635 64.7576 16.7272 64.5798 17.1313C64.4182 17.5193 64.3373 17.9072 64.3373 18.2952H71.2234ZM87.9213 24.9873H85.7391V23.3385H85.6906C85.2703 23.9528 84.6884 24.4296 83.9448 24.7691C83.2174 25.1085 82.4658 25.2783 81.6899 25.2783C80.8008 25.2783 79.9926 25.1247 79.2652 24.8176C78.554 24.5105 77.9397 24.0821 77.4225 23.5325C76.9214 22.9829 76.5334 22.3444 76.2586 21.617C75.9838 20.8896 75.8464 20.0975 75.8464 19.2408C75.8464 18.3841 75.9838 17.592 76.2586 16.8646C76.5334 16.1211 76.9214 15.4826 77.4225 14.9491C77.9397 14.3995 78.554 13.9712 79.2652 13.6641C79.9926 13.3569 80.8008 13.2034 81.6899 13.2034C82.5143 13.2034 83.2902 13.3812 84.0176 13.7368C84.745 14.0763 85.3027 14.545 85.6906 15.1431H85.7391V6.65674H87.9213V24.9873ZM81.9566 23.2415C82.5385 23.2415 83.0639 23.1445 83.5326 22.9506C84.0014 22.7404 84.3974 22.4656 84.7207 22.1262C85.044 21.7706 85.2946 21.3503 85.4724 20.8654C85.6502 20.3643 85.7391 19.8227 85.7391 19.2408C85.7391 18.6589 85.6502 18.1255 85.4724 17.6405C85.2946 17.1394 85.044 16.7192 84.7207 16.3797C84.3974 16.0241 84.0014 15.7493 83.5326 15.5553C83.0639 15.3452 82.5385 15.2401 81.9566 15.2401C81.3747 15.2401 80.8493 15.3452 80.3806 15.5553C79.9118 15.7493 79.5158 16.0241 79.1925 16.3797C78.8692 16.7192 78.6186 17.1394 78.4408 17.6405C78.263 18.1255 78.1741 18.6589 78.1741 19.2408C78.1741 19.8227 78.263 20.3643 78.4408 20.8654C78.6186 21.3503 78.8692 21.7706 79.1925 22.1262C79.5158 22.4656 79.9118 22.7404 80.3806 22.9506C80.8493 23.1445 81.3747 23.2415 81.9566 23.2415ZM93.1181 20.041C93.1181 20.5421 93.2231 21.0028 93.4333 21.423C93.6596 21.8271 93.9505 22.1747 94.3062 22.4656C94.6618 22.7566 95.074 22.9829 95.5428 23.1445C96.0115 23.3062 96.4965 23.387 96.9976 23.387C97.6765 23.387 98.2665 23.2335 98.7676 22.9263C99.2687 22.603 99.7294 22.1828 100.15 21.6655L101.798 22.9263C100.586 24.4943 98.8888 25.2783 96.7066 25.2783C95.8014 25.2783 94.977 25.1247 94.2334 24.8176C93.506 24.5105 92.8837 24.0902 92.3664 23.5567C91.8653 23.0072 91.4774 22.3687 91.2026 21.6412C90.9278 20.8977 90.7904 20.0975 90.7904 19.2408C90.7904 18.3841 90.9359 17.592 91.2268 16.8646C91.534 16.1211 91.9461 15.4826 92.4634 14.9491C92.9968 14.3995 93.6273 13.9712 94.3547 13.6641C95.0821 13.3569 95.8741 13.2034 96.7308 13.2034C97.7492 13.2034 98.6059 13.3812 99.301 13.7368C100.012 14.0924 100.594 14.5612 101.047 15.1431C101.499 15.7089 101.823 16.3555 102.017 17.0829C102.227 17.7941 102.332 18.5215 102.332 19.2651V20.041H93.1181ZM100.004 18.2952C99.988 17.8103 99.9072 17.3657 99.7617 16.9616C99.6324 16.5575 99.4303 16.21 99.1555 15.919C98.8807 15.6119 98.5332 15.3775 98.1129 15.2159C97.7088 15.038 97.2319 14.9491 96.6824 14.9491C96.1489 14.9491 95.6559 15.0542 95.2033 15.2643C94.7669 15.4583 94.3951 15.717 94.0879 16.0402C93.7808 16.3635 93.5384 16.7272 93.3605 17.1313C93.1989 17.5193 93.1181 17.9072 93.1181 18.2952H100.004ZM105.185 13.4943H107.367V15.2643H107.416C107.69 14.6501 108.167 14.1571 108.846 13.7853C109.525 13.3973 110.309 13.2034 111.198 13.2034C111.748 13.2034 112.273 13.2923 112.774 13.4701C113.291 13.6317 113.736 13.8904 114.108 14.246C114.496 14.6016 114.803 15.0623 115.029 15.628C115.255 16.1776 115.368 16.8323 115.368 17.592V24.9873H113.186V18.1982C113.186 17.6648 113.114 17.2122 112.968 16.8404C112.823 16.4524 112.629 16.1453 112.386 15.919C112.144 15.6765 111.861 15.5068 111.537 15.4098C111.23 15.2967 110.907 15.2401 110.568 15.2401C110.115 15.2401 109.695 15.3128 109.307 15.4583C108.919 15.6038 108.579 15.8382 108.288 16.1615C107.997 16.4686 107.771 16.8646 107.61 17.3496C107.448 17.8345 107.367 18.4083 107.367 19.0711V24.9873H105.185V13.4943Z" fill="white"/>
</svg>
