<svg width="49" height="33" viewBox="0 0 49 33" fill="none" xmlns="http://www.w3.org/2000/svg">
<path d="M32.8018 0.494855C30.0469 0.493655 27.338 1.20107 24.9357 2.54906C22.4748 1.17361 19.6969 0.465338 16.8776 0.494519C14.0583 0.523699 11.2957 1.28932 8.86379 2.71541C6.43189 4.14149 4.41525 6.17849 3.01398 8.62427C1.6127 11.0701 0.875488 13.8396 0.875488 16.6582C0.875488 19.4767 1.6127 22.2463 3.01398 24.6921C4.41525 27.1379 6.43189 29.1749 8.86379 30.6009C11.2957 32.027 14.0583 32.7926 16.8776 32.8218C19.6969 32.851 22.4748 32.1427 24.9357 30.7673C27.0926 31.97 29.4965 32.6627 31.9628 32.7921C34.4291 32.9215 36.8923 32.4842 39.1633 31.5138C41.4343 30.5435 43.4526 29.0658 45.0634 27.1943C46.6742 25.3227 47.8346 23.1071 48.4556 20.7174C49.0765 18.3278 49.1414 15.8276 48.6454 13.409C48.1494 10.9903 47.1056 8.71748 45.5941 6.76487C44.0826 4.81227 42.1437 3.23186 39.9262 2.14496C37.7087 1.05807 35.2715 0.493585 32.8018 0.494855ZM20.7179 27.3628C19.5466 27.7822 18.3137 28.0039 17.0696 28.0187C14.056 28.0187 11.1658 26.822 9.03487 24.6917C6.90391 22.5614 5.70676 19.6721 5.70676 16.6594C5.70676 13.6467 6.90391 10.7574 9.03487 8.62709C11.1658 6.49679 14.056 5.3 17.0696 5.3C18.3137 5.31485 19.5466 5.53651 20.7179 5.95591C18.0865 8.90056 16.6319 12.7108 16.6319 16.6594C16.6319 20.6079 18.0865 24.4182 20.7179 27.3628ZM24.9357 24.8233C23.8305 23.7699 22.9507 22.5032 22.3496 21.0999C21.7485 19.6966 21.4385 18.1859 21.4385 16.6594C21.4385 15.1328 21.7485 13.6221 22.3496 12.2189C22.9507 10.8156 23.8305 9.54885 24.9357 8.49543C26.0409 9.54885 26.9207 10.8156 27.5218 12.2189C28.1229 13.6221 28.4329 15.1328 28.4329 16.6594C28.4329 18.1859 28.1229 19.6966 27.5218 21.0999C26.9207 22.5032 26.0409 23.7699 24.9357 24.8233ZM32.8018 28.0187C31.5569 28.0042 30.3232 27.7825 29.1511 27.3628C31.7825 24.4182 33.2371 20.6079 33.2371 16.6594C33.2371 12.7108 31.7825 8.90056 29.1511 5.95591C30.3232 5.53625 31.5569 5.31458 32.8018 5.3C35.8154 5.3 38.7056 6.49679 40.8365 8.62709C42.9675 10.7574 44.1646 13.6467 44.1646 16.6594C44.1646 19.6721 42.9675 22.5614 40.8365 24.6917C38.7056 26.822 35.8154 28.0187 32.8018 28.0187Z" fill="#F2F2F3"/>
</svg>
