<svg width="28" height="33" viewBox="0 0 28 33" fill="none" xmlns="http://www.w3.org/2000/svg">
<path d="M10.5485 17.8741H13.4371C19.7124 17.8741 23.2732 14.9591 24.4067 8.96566C24.4433 8.76809 24.4764 8.57771 24.5043 8.38733C24.5669 7.98142 24.5983 7.61682 24.6122 7.26659C24.6227 7.02591 24.6296 6.88403 24.6279 6.75112C24.6261 6.10925 24.4982 5.47442 24.2518 4.88501C24.0272 4.35338 23.6876 3.83073 23.1844 3.23623C21.6992 1.49406 19.1117 0.493652 16.0211 0.493652H6.17801C5.84258 0.494072 5.51827 0.617796 5.2633 0.842617C5.00832 1.06744 4.83938 1.37864 4.78678 1.72036L3.01075 13.5223L0.801153 28.223C0.782303 28.3475 0.789803 28.4747 0.823136 28.5959C0.856469 28.7171 0.914845 28.8294 0.994254 28.9252C1.07366 29.0209 1.17222 29.0978 1.28316 29.1505C1.3941 29.2032 1.51479 29.2305 1.63693 29.2306H6.46357L7.94186 20.1731C8.03771 19.5315 8.35346 18.9467 8.83175 18.5249C9.31004 18.103 9.91916 17.8721 10.5485 17.8741ZM26.3987 9.63559C25.0197 16.4085 20.5534 20.0024 13.4354 20.0024H10.5485C10.4102 20.0022 10.2764 20.0532 10.1716 20.1461C10.0667 20.2391 9.9978 20.3679 9.97733 20.5089L8.0533 32.8227H13.115C13.4085 32.823 13.6924 32.7151 13.9156 32.5185C14.1387 32.3219 14.2864 32.0495 14.3321 31.7504L14.3826 31.481L15.349 25.1697L15.4117 24.8213C15.4573 24.5222 15.605 24.2498 15.8282 24.0532C16.0514 23.8566 16.3353 23.7487 16.6288 23.749H17.3949C22.3573 23.749 26.242 21.6692 27.3773 15.656C27.8439 13.1774 27.6071 11.1048 26.3987 9.63559Z" fill="#F2F2F3"/>
</svg>
