<svg width="118" height="32" viewBox="0 0 118 32" fill="none" xmlns="http://www.w3.org/2000/svg">
<path fill-rule="evenodd" clip-rule="evenodd" d="M14.4536 14.1732C14.4536 17.7044 8.05981 24.2206 8.05981 24.2206C8.05981 24.2206 1.66602 17.7044 1.66602 14.1732C1.66602 10.642 4.52861 7.77942 8.05981 7.77942C11.591 7.77942 14.4536 10.642 14.4536 14.1732ZM8.05981 16.9134C9.57318 16.9134 10.8 15.6866 10.8 14.1732C10.8 12.6598 9.57318 11.433 8.05981 11.433C6.54644 11.433 5.31961 12.6598 5.31961 14.1732C5.31961 15.6866 6.54644 16.9134 8.05981 16.9134Z" stroke="white" stroke-width="1.8268" stroke-linecap="round"/>
<path d="M39.2439 10.008C38.9079 9.464 38.4599 9.072 37.8999 8.832C37.3399 8.576 36.7559 8.448 36.1479 8.448C35.6999 8.448 35.2599 8.504 34.8279 8.616C34.3959 8.728 34.0039 8.896 33.6519 9.12C33.3159 9.344 33.0439 9.64 32.8359 10.008C32.6279 10.376 32.5239 10.808 32.5239 11.304C32.5239 11.688 32.5799 12.032 32.6919 12.336C32.8199 12.624 33.0199 12.888 33.2919 13.128C33.5639 13.368 33.9319 13.592 34.3959 13.8C34.8599 14.008 35.4279 14.216 36.0999 14.424C36.7559 14.632 37.3879 14.856 37.9959 15.096C38.6199 15.336 39.1639 15.64 39.6279 16.008C40.1079 16.376 40.4839 16.84 40.7559 17.4C41.0439 17.944 41.1879 18.632 41.1879 19.464C41.1879 20.312 41.0199 21.048 40.6839 21.672C40.3479 22.296 39.8999 22.816 39.3399 23.232C38.7959 23.632 38.1639 23.928 37.4439 24.12C36.7239 24.328 35.9799 24.432 35.2119 24.432C34.7159 24.432 34.2199 24.384 33.7239 24.288C33.2279 24.208 32.7479 24.08 32.2839 23.904C31.8359 23.712 31.4119 23.472 31.0119 23.184C30.6119 22.88 30.2679 22.512 29.9799 22.08L31.7079 20.664C32.0759 21.288 32.5879 21.76 33.2439 22.08C33.8999 22.4 34.5959 22.56 35.3319 22.56C35.7639 22.56 36.1959 22.496 36.6279 22.368C37.0759 22.24 37.4759 22.056 37.8279 21.816C38.1799 21.56 38.4679 21.248 38.6919 20.88C38.9159 20.512 39.0279 20.088 39.0279 19.608C39.0279 19.08 38.9399 18.656 38.7639 18.336C38.5879 18 38.3159 17.712 37.9479 17.472C37.5799 17.232 37.1159 17.016 36.5559 16.824C35.9959 16.632 35.3399 16.408 34.5879 16.152C33.9799 15.96 33.4199 15.744 32.9079 15.504C32.3959 15.248 31.9479 14.944 31.5639 14.592C31.1959 14.224 30.8999 13.792 30.6759 13.296C30.4679 12.784 30.3639 12.176 30.3639 11.472C30.3639 10.656 30.5239 9.944 30.8439 9.336C31.1639 8.728 31.5959 8.224 32.1399 7.824C32.6839 7.408 33.2999 7.096 33.9879 6.888C34.6759 6.68 35.3959 6.576 36.1479 6.576C37.1079 6.576 37.9799 6.728 38.7639 7.032C39.5639 7.32 40.2759 7.832 40.8999 8.568L39.2439 10.008ZM56.4678 24H54.6198L51.4278 15.36H51.3798L48.5478 24H46.6278L42.9798 12.768H45.0438L47.6118 21.408H47.6598L50.5638 12.768H52.5318L55.4838 21.408H55.5318L58.0758 12.768H60.0918L56.4678 24ZM72.4809 21.96C71.8089 22.824 71.0729 23.432 70.2729 23.784C69.4729 24.12 68.5449 24.288 67.4889 24.288C66.6089 24.288 65.8169 24.136 65.1129 23.832C64.4089 23.512 63.8089 23.088 63.3129 22.56C62.8329 22.032 62.4569 21.408 62.1849 20.688C61.9289 19.968 61.8009 19.2 61.8009 18.384C61.8009 17.52 61.9449 16.728 62.2329 16.008C62.5209 15.272 62.9209 14.648 63.4329 14.136C63.9449 13.608 64.5529 13.2 65.2569 12.912C65.9609 12.624 66.7289 12.48 67.5609 12.48C68.3449 12.48 69.0649 12.616 69.7209 12.888C70.3769 13.144 70.9369 13.528 71.4009 14.04C71.8809 14.536 72.2489 15.152 72.5049 15.888C72.7609 16.608 72.8889 17.432 72.8889 18.36V18.96H63.8169C63.8489 19.44 63.9609 19.904 64.1529 20.352C64.3609 20.784 64.6249 21.168 64.9449 21.504C65.2649 21.824 65.6409 22.08 66.0729 22.272C66.5049 22.464 66.9769 22.56 67.4889 22.56C68.3049 22.56 68.9929 22.416 69.5529 22.128C70.1129 21.84 70.6169 21.416 71.0649 20.856L72.4809 21.96ZM70.8729 17.376C70.8409 16.416 70.5289 15.648 69.9369 15.072C69.3449 14.496 68.5289 14.208 67.4889 14.208C66.4489 14.208 65.6089 14.496 64.9689 15.072C64.3289 15.648 63.9449 16.416 63.8169 17.376H70.8729ZM85.3608 22.008H85.3128C84.9608 22.648 84.4008 23.192 83.6328 23.64C82.8808 24.072 82.0008 24.288 80.9928 24.288C80.2088 24.288 79.4728 24.144 78.7848 23.856C78.0968 23.552 77.4968 23.136 76.9848 22.608C76.4888 22.08 76.0968 21.456 75.8088 20.736C75.5208 20.016 75.3768 19.232 75.3768 18.384C75.3768 17.536 75.5208 16.752 75.8088 16.032C76.0968 15.312 76.4968 14.688 77.0088 14.16C77.5208 13.632 78.1368 13.224 78.8568 12.936C79.5928 12.632 80.4008 12.48 81.2808 12.48C82.0968 12.48 82.8408 12.648 83.5128 12.984C84.2008 13.32 84.8008 13.792 85.3128 14.4H85.3608V5.856H87.2328V24H85.3608V22.008ZM85.3608 18.384C85.3608 17.792 85.2648 17.248 85.0728 16.752C84.8968 16.24 84.6328 15.8 84.2808 15.432C83.9288 15.048 83.5048 14.752 83.0088 14.544C82.5288 14.32 81.9848 14.208 81.3768 14.208C80.7688 14.208 80.2168 14.32 79.7208 14.544C79.2408 14.752 78.8248 15.048 78.4728 15.432C78.1208 15.8 77.8488 16.24 77.6568 16.752C77.4808 17.248 77.3928 17.792 77.3928 18.384C77.3928 18.976 77.4808 19.528 77.6568 20.04C77.8488 20.536 78.1208 20.976 78.4728 21.36C78.8248 21.728 79.2408 22.024 79.7208 22.248C80.2168 22.456 80.7688 22.56 81.3768 22.56C81.9848 22.56 82.5288 22.456 83.0088 22.248C83.5048 22.024 83.9288 21.728 84.2808 21.36C84.6328 20.976 84.8968 20.536 85.0728 20.04C85.2648 19.528 85.3608 18.976 85.3608 18.384ZM100.969 21.96C100.297 22.824 99.5607 23.432 98.7607 23.784C97.9607 24.12 97.0327 24.288 95.9767 24.288C95.0967 24.288 94.3047 24.136 93.6007 23.832C92.8967 23.512 92.2967 23.088 91.8007 22.56C91.3207 22.032 90.9447 21.408 90.6727 20.688C90.4167 19.968 90.2887 19.2 90.2887 18.384C90.2887 17.52 90.4327 16.728 90.7207 16.008C91.0087 15.272 91.4087 14.648 91.9207 14.136C92.4327 13.608 93.0407 13.2 93.7447 12.912C94.4487 12.624 95.2167 12.48 96.0487 12.48C96.8327 12.48 97.5527 12.616 98.2087 12.888C98.8647 13.144 99.4247 13.528 99.8887 14.04C100.369 14.536 100.737 15.152 100.993 15.888C101.249 16.608 101.377 17.432 101.377 18.36V18.96H92.3047C92.3367 19.44 92.4487 19.904 92.6407 20.352C92.8487 20.784 93.1127 21.168 93.4327 21.504C93.7527 21.824 94.1287 22.08 94.5607 22.272C94.9927 22.464 95.4647 22.56 95.9767 22.56C96.7927 22.56 97.4807 22.416 98.0407 22.128C98.6007 21.84 99.1047 21.416 99.5527 20.856L100.969 21.96ZM99.3607 17.376C99.3287 16.416 99.0167 15.648 98.4247 15.072C97.8327 14.496 97.0167 14.208 95.9767 14.208C94.9367 14.208 94.0967 14.496 93.4567 15.072C92.8167 15.648 92.4327 16.416 92.3047 17.376H99.3607ZM104.513 15.432C104.513 14.92 104.497 14.44 104.465 13.992C104.433 13.544 104.417 13.136 104.417 12.768H106.193C106.193 13.072 106.201 13.376 106.217 13.68C106.233 13.984 106.241 14.296 106.241 14.616H106.289C106.417 14.344 106.593 14.08 106.817 13.824C107.057 13.568 107.337 13.344 107.657 13.152C107.977 12.944 108.337 12.784 108.737 12.672C109.137 12.544 109.569 12.48 110.033 12.48C110.769 12.48 111.401 12.592 111.929 12.816C112.473 13.04 112.921 13.352 113.273 13.752C113.625 14.152 113.881 14.64 114.041 15.216C114.217 15.776 114.305 16.392 114.305 17.064V24H112.433V17.256C112.433 16.312 112.225 15.568 111.809 15.024C111.393 14.48 110.745 14.208 109.865 14.208C109.257 14.208 108.729 14.312 108.281 14.52C107.849 14.728 107.489 15.024 107.201 15.408C106.929 15.792 106.721 16.248 106.577 16.776C106.449 17.304 106.385 17.888 106.385 18.528V24H104.513V15.432Z" fill="white"/>
</svg>
