<svg width="35" height="29" viewBox="0 0 35 29" fill="none" xmlns="http://www.w3.org/2000/svg">
<path d="M10.9617 28.6428C24.1153 28.6428 31.3085 17.6242 31.3085 8.06924C31.3085 7.75632 31.3022 7.44483 31.2882 7.13463C32.6879 6.11059 33.8958 4.84267 34.8554 3.3903C33.574 3.96631 32.1952 4.35399 30.7487 4.52878C32.2252 3.63362 33.3586 2.21745 33.8934 0.52939C32.4896 1.37141 30.9539 1.96499 29.3524 2.28455C28.0475 0.879047 26.1897 0 24.1325 0C20.1833 0 16.9809 3.23821 16.9809 7.22979C16.9809 7.79728 17.0437 8.34908 17.1664 8.87854C11.2229 8.57615 5.95269 5.69884 2.42557 1.32373C1.7903 2.42722 1.45616 3.68135 1.45727 4.95806C1.45727 7.46674 2.71971 9.68133 4.63959 10.977C3.50396 10.9419 2.39326 10.6318 1.40088 10.0726C1.39981 10.1029 1.39981 10.1325 1.39981 10.165C1.39981 13.6668 3.86477 16.5905 7.13693 17.253C6.52237 17.4223 5.88822 17.5078 5.25126 17.5075C4.79127 17.5075 4.34297 17.4617 3.90728 17.3771C4.8177 20.2502 7.45764 22.3409 10.5876 22.3993C8.14001 24.3391 5.0568 25.4944 1.70579 25.4944C1.13574 25.4949 0.566157 25.4615 0 25.3943C3.1649 27.4454 6.92291 28.6423 10.962 28.6423" fill="#F2F2F3"/>
</svg>
