<svg width="48" height="33" viewBox="0 0 48 33" fill="none" xmlns="http://www.w3.org/2000/svg">
<path d="M24.8769 32.2867L15.3425 32.1113C12.2554 32.0502 9.16069 32.1722 6.13417 31.5391C1.53014 30.5932 1.20398 25.9554 0.862677 22.0652C0.392403 16.596 0.57446 11.0275 1.46193 5.60395C1.96293 2.56077 3.93459 0.744881 6.98369 0.547278C17.2766 -0.169853 27.638 -0.0848655 37.9082 0.249702C38.9928 0.280372 40.0849 0.448007 41.1545 0.63882C46.4339 1.56947 46.5626 6.82515 46.9048 11.2494C47.2461 15.7194 47.102 20.2123 46.4497 24.6518C45.9263 28.3276 44.925 31.4101 40.6993 31.7077C35.4048 32.0968 30.2318 32.4101 24.9223 32.3103C24.9226 32.2867 24.8921 32.2867 24.8769 32.2867ZM19.2716 22.9806C23.2615 20.6768 27.1752 18.4114 31.1423 16.123C27.1449 13.8192 23.2386 11.5538 19.2716 9.26546V22.9806Z" fill="#F2F2F3"/>
</svg>
