<svg width="33" height="32" viewBox="0 0 33 32" fill="none" xmlns="http://www.w3.org/2000/svg">
<path d="M10.9449 16C10.9449 13.0546 13.3319 10.6662 16.2773 10.6662C19.2227 10.6662 21.6111 13.0546 21.6111 16C21.6111 18.9454 19.2227 21.3338 16.2773 21.3338C13.3319 21.3338 10.9449 18.9454 10.9449 16ZM8.06151 16C8.06151 20.5376 11.7397 24.2158 16.2773 24.2158C20.815 24.2158 24.4932 20.5376 24.4932 16C24.4932 11.4624 20.815 7.78417 16.2773 7.78417C11.7397 7.78417 8.06151 11.4624 8.06151 16ZM22.8983 7.45848C22.8983 8.51826 23.7578 9.379 24.8189 9.379C25.8786 9.379 26.7394 8.51826 26.7394 7.45848C26.7394 6.39871 25.8799 5.53926 24.8189 5.53926C23.7578 5.53926 22.8983 6.39871 22.8983 7.45848ZM9.81272 29.0236C8.25279 28.9525 7.40497 28.6927 6.84148 28.473C6.09447 28.1822 5.562 27.8359 5.00109 27.2763C4.44148 26.7166 4.09382 26.1842 3.80432 25.4372C3.58461 24.8737 3.32484 24.0258 3.25376 22.4659C3.17621 20.7793 3.1607 20.2727 3.1607 16C3.1607 11.7273 3.17751 11.222 3.25376 9.53409C3.32484 7.97415 3.58591 7.12763 3.80432 6.56284C4.09511 5.81583 4.44148 5.28336 5.00109 4.72246C5.5607 4.16284 6.09318 3.81519 6.84148 3.52569C7.40497 3.30598 8.25279 3.0462 9.81272 2.97512C11.4993 2.89758 12.0059 2.88207 16.2773 2.88207C20.55 2.88207 21.0554 2.89887 22.7433 2.97512C24.3032 3.0462 25.1497 3.30727 25.7145 3.52569C26.4615 3.81519 26.994 4.16284 27.5549 4.72246C28.1145 5.28207 28.4609 5.81583 28.7517 6.56284C28.9714 7.12633 29.2311 7.97415 29.3022 9.53409C29.3798 11.222 29.3953 11.7273 29.3953 16C29.3953 20.2714 29.3798 20.778 29.3022 22.4659C29.2311 24.0258 28.9701 24.8737 28.7517 25.4372C28.4609 26.1842 28.1145 26.7166 27.5549 27.2763C26.9953 27.8359 26.4615 28.1822 25.7145 28.473C25.151 28.6927 24.3032 28.9525 22.7433 29.0236C21.0567 29.1011 20.55 29.1166 16.2773 29.1166C12.0059 29.1166 11.4993 29.1011 9.81272 29.0236ZM9.6809 0.0969305C7.97751 0.174475 6.81434 0.444588 5.79721 0.840065C4.74519 1.24847 3.85343 1.79645 2.96297 2.68562C2.07379 3.5748 1.52581 4.46656 1.11741 5.51987C0.721932 6.53699 0.451819 7.70016 0.374274 9.40355C0.295437 11.1095 0.277344 11.6549 0.277344 16C0.277344 20.3451 0.295437 20.8905 0.374274 22.5964C0.451819 24.2998 0.721932 25.463 1.11741 26.4801C1.52581 27.5321 2.0725 28.4252 2.96297 29.3144C3.85214 30.2036 4.7439 30.7502 5.79721 31.1599C6.81563 31.5554 7.97751 31.8255 9.6809 31.9031C11.3882 31.9806 11.9323 32 16.2773 32C20.6237 32 21.1678 31.9819 22.8738 31.9031C24.5772 31.8255 25.7403 31.5554 26.7575 31.1599C27.8095 30.7502 28.7013 30.2036 29.5917 29.3144C30.4809 28.4252 31.0276 27.5321 31.4373 26.4801C31.8328 25.463 32.1042 24.2998 32.1804 22.5964C32.258 20.8892 32.2761 20.3451 32.2761 16C32.2761 11.6549 32.258 11.1095 32.1804 9.40355C32.1029 7.70016 31.8328 6.53699 31.4373 5.51987C31.0276 4.46785 30.4809 3.57609 29.5917 2.68562C28.7025 1.79645 27.8095 1.24847 26.7588 0.840065C25.7403 0.444588 24.5772 0.173183 22.8751 0.0969305C21.1691 0.0193861 20.6237 0 16.2786 0C11.9323 0 11.3882 0.0180937 9.6809 0.0969305Z" fill="#B1D0B7"/>
</svg>
