<svg width="49" height="32" viewBox="0 0 49 32" fill="none" xmlns="http://www.w3.org/2000/svg">
<path d="M32.1209 0.00118998C29.394 2.86719e-06 26.7127 0.700213 24.3349 2.03448C21.899 0.673036 19.1494 -0.0280259 16.3588 0.000857722C13.5682 0.0297413 10.8337 0.787566 8.42653 2.19914C6.01938 3.61072 4.02327 5.62697 2.63625 8.04787C1.24924 10.4688 0.519531 13.2101 0.519531 16C0.519531 18.7899 1.24924 21.5312 2.63625 23.9521C4.02327 26.373 6.01938 28.3893 8.42653 29.8009C10.8337 31.2124 13.5682 31.9703 16.3588 31.9991C19.1494 32.028 21.899 31.327 24.3349 29.9655C26.4698 31.156 28.8492 31.8416 31.2904 31.9697C33.7316 32.0978 36.1698 31.665 38.4176 30.7045C40.6655 29.744 42.6633 28.2813 44.2577 26.4288C45.8521 24.5763 47.0007 22.3833 47.6153 20.0179C48.2299 17.6526 48.2942 15.1779 47.8033 12.7839C47.3123 10.3899 46.2791 8.14012 44.783 6.2074C43.2869 4.27467 41.3677 2.71034 39.1728 1.6345C36.9778 0.558668 34.5655 -6.71493e-05 32.1209 0.00118998ZM20.16 26.5957C19.0006 27.0108 17.7803 27.2302 16.5489 27.2449C13.5659 27.2449 10.7051 26.0603 8.59587 23.9517C6.4866 21.8431 5.30163 18.9832 5.30163 16.0012C5.30163 13.0192 6.4866 10.1593 8.59587 8.05065C10.7051 5.94204 13.5659 4.75743 16.5489 4.75743C17.7803 4.77213 19.0006 4.99153 20.16 5.40666C17.5553 8.32134 16.1156 12.0928 16.1156 16.0012C16.1156 19.9095 17.5553 23.681 20.16 26.5957ZM24.3349 24.082C23.2409 23.0393 22.3701 21.7855 21.7751 20.3965C21.1801 19.0075 20.8733 17.5122 20.8733 16.0012C20.8733 14.4902 21.1801 12.9949 21.7751 11.6059C22.3701 10.2169 23.2409 8.96303 24.3349 7.92033C25.4288 8.96303 26.2996 10.2169 26.8947 11.6059C27.4897 12.9949 27.7965 14.4902 27.7965 16.0012C27.7965 17.5122 27.4897 19.0075 26.8947 20.3965C26.2996 21.7855 25.4288 23.0393 24.3349 24.082ZM32.1209 27.2449C30.8887 27.2305 29.6675 27.0111 28.5074 26.5957C31.112 23.681 32.5517 19.9095 32.5517 16.0012C32.5517 12.0928 31.112 8.32134 28.5074 5.40666C29.6675 4.99127 30.8887 4.77187 32.1209 4.75743C35.1038 4.75743 37.9646 5.94204 40.0739 8.05065C42.1831 10.1593 43.3681 13.0192 43.3681 16.0012C43.3681 18.9832 42.1831 21.8431 40.0739 23.9517C37.9646 26.0603 35.1038 27.2449 32.1209 27.2449Z" fill="#B1D0B7"/>
</svg>
