<svg width="36" height="30" viewBox="0 0 36 30" fill="none" xmlns="http://www.w3.org/2000/svg">
<path d="M11.3835 29.2853C24.5371 29.2853 31.7304 18.2668 31.7304 8.71182C31.7304 8.3989 31.7241 8.08741 31.7101 7.77721C33.1098 6.75317 34.3177 5.48524 35.2773 4.03288C33.9959 4.60889 32.6171 4.99657 31.1706 5.17136C32.647 4.2762 33.7805 2.86003 34.3153 1.17197C32.9115 2.01399 31.3758 2.60757 29.7743 2.92713C28.4694 1.52162 26.6115 0.642578 24.5544 0.642578C20.6052 0.642578 17.4028 3.88079 17.4028 7.87237C17.4028 8.43986 17.4656 8.99166 17.5883 9.52112C11.6448 9.21873 6.37457 6.34142 2.84744 1.9663C2.21217 3.06979 1.87803 4.32393 1.87914 5.60064C1.87914 8.10932 3.14159 10.3239 5.06147 11.6196C3.92584 11.5845 2.81513 11.2743 1.82275 10.7152C1.82169 10.7455 1.82169 10.7751 1.82169 10.8075C1.82169 14.3093 4.28664 17.2331 7.5588 17.8956C6.94425 18.0649 6.31009 18.1504 5.67314 18.15C5.21315 18.15 4.76484 18.1043 4.32915 18.0197C5.23957 20.8927 7.87951 22.9834 11.0095 23.0419C8.56189 24.9816 5.47867 26.137 2.12766 26.137C1.55762 26.1375 0.988032 26.104 0.421875 26.0368C3.58677 28.088 7.34478 29.2848 11.3839 29.2848" fill="#B1D0B7"/>
</svg>
