<svg width="47" height="32" viewBox="0 0 47 32" fill="none" xmlns="http://www.w3.org/2000/svg">
<path d="M24.2945 31.9581L14.8571 31.7845C11.8014 31.724 8.73822 31.8448 5.74251 31.2181C1.18534 30.2819 0.862489 25.6913 0.524665 21.8406C0.059177 16.4271 0.239381 10.9153 1.11782 5.54691C1.61372 2.5347 3.56531 0.737299 6.58338 0.541707C16.7716 -0.168124 27.0275 -0.0840018 37.1931 0.24716C38.2667 0.277519 39.3477 0.443447 40.4064 0.632319C45.632 1.5535 45.7595 6.75569 46.0982 11.135C46.436 15.5594 46.2934 20.0066 45.6477 24.4009C45.1297 28.0393 44.1386 31.0904 39.9559 31.385C34.7152 31.7701 29.5948 32.0802 24.3394 31.9815C24.3397 31.9581 24.3095 31.9581 24.2945 31.9581ZM18.7462 22.7467C22.6955 20.4664 26.5694 18.224 30.4961 15.9589C26.5394 13.6786 22.6729 11.4362 18.7462 9.17116V22.7467Z" fill="#B1D0B7"/>
</svg>
