<svg width="22" height="23" viewBox="0 0 22 23" fill="none" xmlns="http://www.w3.org/2000/svg">
<path d="M4.28571 9.27778V10.2778H6.28571V9.27778H4.28571ZM15.7143 9.27778V10.2778H17.7143V9.27778H15.7143ZM20 7.94444V19.5H22V7.94444H20ZM19 20.5H3V22.5H19V20.5ZM2 19.5V7.94445H0V19.5H2ZM9.57143 2.5H12.4286V0.5H9.57143V2.5ZM12.4286 2.5C14.4917 2.5 15.7143 3.76399 15.7143 4.83333H17.7143C17.7143 2.22078 15.0993 0.5 12.4286 0.5V2.5ZM6.28571 4.83333C6.28571 3.76399 7.50834 2.5 9.57143 2.5V0.5C6.90065 0.5 4.28571 2.22078 4.28571 4.83333H6.28571ZM3 6.94444H5.28571V4.94444H3V6.94444ZM6.28571 5.94444V4.83333H4.28571V5.94444H6.28571ZM15.7143 4.83333V5.94444H17.7143V4.83333H15.7143ZM16.7143 6.94444H19V4.94444H16.7143V6.94444ZM16.7143 4.94444H5.28571V6.94444H16.7143V4.94444ZM15.7143 5.94444V9.27778H17.7143V5.94444H15.7143ZM6.28571 9.27778V5.94444H4.28571V9.27778H6.28571ZM3 20.5C2.44772 20.5 2 20.0523 2 19.5H0C0 21.1569 1.34315 22.5 3 22.5V20.5ZM20 19.5C20 20.0523 19.5523 20.5 19 20.5V22.5C20.6569 22.5 22 21.1569 22 19.5H20ZM22 7.94444C22 6.28759 20.6569 4.94444 19 4.94444V6.94444C19.5523 6.94444 20 7.39216 20 7.94444H22ZM2 7.94445C2 7.39216 2.44772 6.94444 3 6.94444V4.94444C1.34314 4.94444 0 6.28759 0 7.94445H2Z" fill="white"/>
</svg>
