<svg width="335" height="296" viewBox="0 0 335 296" fill="none" xmlns="http://www.w3.org/2000/svg">
<path fill-rule="evenodd" clip-rule="evenodd" d="M118.566 205.233L167.357 289.74L216.147 205.233L223.118 193.16L245.77 153.925H88.9436L111.596 193.16L118.566 205.233ZM118.566 205.233H216.147L223.118 193.16H111.596L118.566 205.233Z" fill="#131313"/>
<path fill-rule="evenodd" clip-rule="evenodd" d="M118.566 90.5439L167.357 6.03626L216.147 90.5439L223.118 102.616L245.77 141.852H88.9436L111.596 102.616L118.566 90.5439ZM118.566 90.5439H216.147L223.118 102.616H111.596L118.566 90.5439Z" fill="#131313"/>
<path d="M78.4133 159.958L156.827 295.774H0L78.4133 159.958Z" fill="#131313"/>
<path d="M256.299 135.816L334.712 0H177.885L256.299 135.816Z" fill="#131313"/>
</svg>
