<svg width="47" height="26" viewBox="0 0 47 26" fill="none" xmlns="http://www.w3.org/2000/svg">
<path fill-rule="evenodd" clip-rule="evenodd" d="M41.25 25H33.8505V24.634L33.8517 24.6333L33.8505 24.6326L37.3839 18.6362H27V1H45V18.6361L41.25 25ZM34.933 24.2652H40.817L44.25 18.4392V1.73484H27.75V17.9013H38.25L38.25 18.6362L34.933 24.2652Z" fill="#131313" stroke="#131313"/>
<path fill-rule="evenodd" clip-rule="evenodd" d="M15.25 25H7.85052V24.634L7.85167 24.6333L7.85048 24.6326L11.3839 18.6362H1V1H19V18.6361L15.25 25ZM8.93301 24.2652H14.817L18.25 18.4392V1.73484H1.75V17.9013H12.25L12.25 18.6362L8.93301 24.2652Z" fill="#131313" stroke="#131313"/>
</svg>
