<svg width="20" height="21" viewBox="0 0 20 21" fill="none" xmlns="http://www.w3.org/2000/svg">
<path fill-rule="evenodd" clip-rule="evenodd" d="M16.5935 8.78962C16.5935 10.7105 15.9396 12.4788 14.8421 13.8844L20 19.0379L18.5366 20.5L13.3765 15.3443C11.9729 16.4319 10.2105 17.0792 8.29675 17.0792C3.71458 17.0792 0 13.3678 0 8.78962C0 4.21139 3.71458 0.5 8.29675 0.5C12.8789 0.5 16.5935 4.21139 16.5935 8.78962ZM8.29675 15.0068C11.7334 15.0068 14.5193 12.2233 14.5193 8.78962C14.5193 5.35595 11.7334 2.5724 8.29675 2.5724C4.86012 2.5724 2.07419 5.35595 2.07419 8.78962C2.07419 12.2233 4.86012 15.0068 8.29675 15.0068Z" fill="white"/>
</svg>
